<svg width="138" height="21" viewBox="0 0 138 21" fill="none" xmlns="http://www.w3.org/2000/svg">
<path d="M12.4706 3.99999L12.4471 4.02352C13.2784 5.30979 13.6941 6.62744 13.6941 7.97646C13.6941 9.43528 13.2157 10.8 12.2588 12.0706C11.4588 13.1372 9.70196 13.8823 6.98823 14.3059C6.95686 14.6039 6.98823 15.0823 7.08235 15.7412C7.20784 16.447 7.27058 16.847 7.27058 16.9412C7.27058 17.5059 7.11372 18.1176 6.8 18.7765C6.64313 19.1059 6.31372 19.3804 5.81176 19.6C5.32549 19.8196 4.77647 19.9294 4.1647 19.9294C3.2549 19.9294 2.52549 19.6863 1.97647 19.2C1.44313 18.698 1.15294 18.0078 1.10588 17.1294C0.745093 15.5921 0.572544 13.9765 0.58823 12.2823V7.24704C0.58823 7.10587 0.619603 6.52548 0.682348 5.50587C0.745093 4.58038 0.901956 3.80391 1.15294 3.17646C1.48235 2.36077 1.95294 1.8745 2.5647 1.71763C3.97647 1.35685 5.2549 1.17646 6.4 1.17646C9.17647 1.17646 11.1922 2.11763 12.4471 3.99999H12.4706ZM7.92941 8.25881C8.11764 7.88234 8.21176 7.52155 8.21176 7.17646C8.21176 6.29803 7.63921 5.81175 6.49411 5.71763C6.41568 6.37646 6.37647 6.87842 6.37647 7.22351C6.37647 7.70979 6.38431 8.07057 6.4 8.30587C6.43137 8.66665 6.47058 9.19214 6.51764 9.88234C6.65882 9.75685 6.83921 9.57646 7.05882 9.34116C7.46666 8.93332 7.74901 8.56469 7.90588 8.23528L7.92941 8.25881Z" fill="black"/>
<path d="M27.4061 15.8588L27.4296 15.8823C27.0217 17.1529 26.3002 18.1568 25.2649 18.8941C24.2453 19.6314 23.061 20 21.7119 20C19.2178 20 17.2806 19.0588 15.9002 17.1765C14.7237 15.5765 14.1355 13.6314 14.1355 11.3412C14.1355 10.2902 14.2296 9.31763 14.4178 8.42352C15.2806 4.3294 17.108 2.02351 19.9002 1.50587C20.1512 1.45881 20.4178 1.43528 20.7002 1.43528C21.9551 1.43528 23.1708 1.85097 24.3472 2.68234C25.5394 3.51371 26.3394 4.52548 26.7472 5.71763C27.6257 8.30587 28.0649 10.3216 28.0649 11.7647C28.0649 12.9882 27.8374 14.3529 27.3825 15.8588H27.4061ZM21.5708 14.1647V14.1412C22.0257 14.0627 22.2531 13.1921 22.2531 11.5294C22.2531 10.5725 22.1668 9.6941 21.9943 8.8941C21.8217 8.07842 21.6335 7.65489 21.4296 7.62351C21.0845 7.5294 20.7708 7.90587 20.4884 8.75293C20.2061 9.59999 20.0649 10.5333 20.0649 11.5529C20.0649 13.451 20.5668 14.3216 21.5708 14.1647Z" fill="black"/>
<path d="M42.1696 14.3294C42.0284 16.0392 41.3774 17.3412 40.2166 18.2353C39.6049 18.7059 38.499 19.2314 36.899 19.8118C36.1931 19.9372 35.4637 20 34.7108 20C32.499 20 30.9068 19.5372 29.9343 18.6118C29.699 18.3137 29.5813 15.9372 29.5813 11.4823C29.5813 6.19606 29.7068 3.2941 29.9578 2.77646C31.0558 1.83528 32.7108 1.36469 34.9225 1.36469C35.5657 1.36469 36.0519 1.39606 36.3813 1.45881C38.1068 1.78822 39.3931 2.42352 40.2402 3.36469C41.0872 4.29018 41.5343 5.4745 41.5813 6.91763C41.4558 7.76469 41.1107 8.45489 40.546 8.98822C40.2951 9.22352 39.7617 9.56077 38.946 9.99999C39.9657 10.1882 40.7735 10.7059 41.3696 11.5529C41.9813 12.4 42.248 13.3255 42.1696 14.3294ZM36.1931 6.21175L36.1696 6.23528C36.0911 5.82744 35.746 5.62352 35.1343 5.62352C34.9304 5.62352 34.8127 5.6392 34.7813 5.67057C34.6715 5.68626 34.5696 5.78822 34.4755 5.97646C34.5853 6.90195 34.5931 7.93724 34.499 9.08234L35.5343 8.42352C36.0049 7.60783 36.2402 6.98822 36.2402 6.56469C36.2402 6.48626 36.2245 6.36861 36.1931 6.21175ZM35.746 14.1882V14.2118C35.8558 13.851 35.9108 13.5451 35.9108 13.2941C35.9108 12.5725 35.6676 12.2118 35.1813 12.2118C34.9147 12.2118 34.6558 12.3137 34.4049 12.5176C34.4206 12.7216 34.397 13.098 34.3343 13.647C34.2402 14.3059 34.1931 14.7059 34.1931 14.847C34.1931 14.9412 34.2088 15.1843 34.2402 15.5765C34.7108 15.5137 35.0715 15.3333 35.3225 15.0353C35.4323 14.8941 35.5735 14.6118 35.746 14.1882Z" fill="black"/>
<path d="M50.5138 4.4941C50.5138 5.13724 50.5295 5.92155 50.5608 6.84704C50.5922 7.77253 50.6079 8.36861 50.6079 8.63528C50.6236 11.7412 50.4118 14.5176 49.9726 16.9647C49.6903 18.549 48.9687 19.498 47.8079 19.8118C47.4628 19.8431 47.2275 19.8588 47.102 19.8588C45.5177 19.8588 44.6236 19.1294 44.4197 17.6706C44.0589 15.1608 43.8863 12.8941 43.902 10.8706C43.9177 8.73724 44.0824 6.84704 44.3961 5.19999L45.0314 3.62352C45.8471 2.44704 47.0079 1.85881 48.5138 1.85881C48.8589 1.85881 49.1648 1.89018 49.4314 1.95293C49.8706 2.15685 50.1608 2.52548 50.302 3.05881L50.5138 4.4941Z" fill="black"/>
<path d="M62.7392 8.56469C62.802 8.79999 62.8255 9.04312 62.8098 9.2941C62.8098 10.1255 62.4726 10.8235 61.7981 11.3882C61.1863 11.9216 60.5275 12.149 59.8216 12.0706C59.6961 12.0235 59.4608 12.0157 59.1157 12.047C59.1471 12.2353 59.0922 12.7372 58.951 13.5529C58.951 13.9294 59.1157 14.2118 59.4451 14.4C60.0883 14.2274 60.6138 14.2274 61.0216 14.4C61.6647 14.651 62.0177 15.0745 62.0804 15.6706C62.1589 16.3451 61.9628 17.0353 61.4922 17.7412C61.0216 18.4314 60.3706 19.0118 59.5392 19.4823C58.802 19.9059 57.9314 20.1176 56.9275 20.1176C56.049 20.1176 55.2569 19.9529 54.551 19.6235C54.253 19.4823 53.8059 19.0431 53.2098 18.3059C52.5667 17.2392 52.2373 14.9882 52.2216 11.5529C52.2059 9.57646 52.3706 7.31763 52.7157 4.77646C52.9196 3.30195 53.3432 2.34508 53.9863 1.90587L57.9157 1.50587C58.5902 1.36469 59.2334 1.2941 59.8451 1.2941C61.0687 1.2941 61.7902 1.59999 62.0098 2.21175C62.1039 2.46273 62.151 2.74508 62.151 3.05881C62.151 3.73332 61.9 4.28234 61.3981 4.70587C60.8961 5.1294 60.1981 5.34116 59.3039 5.34116C59.0843 5.34116 58.9118 5.33332 58.7863 5.31763C58.6765 5.55293 58.6138 5.9294 58.5981 6.44704C58.5667 7.10587 58.5432 7.48234 58.5275 7.57646C58.5745 7.79606 58.7392 7.93724 59.0216 7.99999C59.4765 7.6392 60.049 7.45881 60.7392 7.45881C61.5392 7.45881 62.2059 7.82744 62.7392 8.56469Z" fill="black"/>
<path d="M77.6566 17.5059H77.6331C77.4135 17.9765 77.0448 18.4549 76.5272 18.9412C75.8527 19.5529 75.1703 19.898 74.4801 19.9765C73.1468 20.1176 71.7821 18.7608 70.386 15.9059C70.4331 16.3137 70.4566 16.6667 70.4566 16.9647C70.4566 17.9372 70.2213 18.7059 69.7507 19.2706C69.0292 19.7725 68.3076 20.0235 67.586 20.0235C67.2723 20.0235 66.9899 19.9921 66.739 19.9294C65.8135 19.6941 65.2096 19.3961 64.9272 19.0353C64.5507 18.5647 64.3625 17.7176 64.3625 16.4941V15.5529C64.3154 15.5059 64.3311 14.1019 64.4096 11.3412C64.5037 8.21959 64.6841 5.84312 64.9507 4.21175C65.1546 3.03528 65.986 2.22744 67.4448 1.78822C68.135 1.5843 69.4919 1.38038 71.5154 1.17646C73.9154 1.25489 75.5625 2.05489 76.4566 3.57646C77.1311 5.09803 77.4605 6.4941 77.4448 7.76469C77.4292 9.06665 77.0762 10.1568 76.386 11.0353C76.2762 11.1765 75.8292 11.5921 75.0448 12.2823C76.8174 14.1961 77.7037 15.7961 77.7037 17.0823C77.7037 17.1765 77.688 17.3176 77.6566 17.5059ZM70.9272 6.54116H70.9037C70.8096 6.50979 70.7311 6.4941 70.6684 6.4941C70.6056 6.4941 70.3625 6.60391 69.939 6.82352C69.8762 6.88626 69.8527 7.28626 69.8684 8.02352C69.8841 8.88626 69.8919 9.70195 69.8919 10.4706C70.488 10.2667 70.9899 9.97646 71.3978 9.59999C71.8213 9.20783 72.0331 8.79999 72.0331 8.37646C72.0331 7.79606 71.6645 7.1843 70.9272 6.54116Z" fill="black"/>
<path d="M92.3982 3.45881L92.4687 4.16469C92.4687 7.06665 90.4217 10.2667 86.3276 13.7647C86.2021 14.0314 86.2883 14.1961 86.5864 14.2588C87.1668 13.9608 88.1001 13.8118 89.3864 13.8118C90.1707 13.8118 90.7511 13.8745 91.1276 14C91.8648 14.251 92.2413 14.9019 92.257 15.9529C92.257 16.2039 92.2099 16.4863 92.1158 16.8C91.7236 18.0863 91.1982 18.9019 90.5393 19.247C88.7197 19.6863 86.9785 19.9059 85.3158 19.9059C83.4648 19.9059 81.9197 19.6235 80.6805 19.0588C79.9119 18.7137 79.3864 17.9843 79.104 16.8706C79.1668 15.3333 79.4727 14 80.0217 12.8706C80.5707 11.7255 81.5276 10.4706 82.8923 9.10587C84.1001 8.36861 84.7982 7.67058 84.9864 7.01175C84.8609 6.93332 84.6962 6.8941 84.4923 6.8941C84.2727 6.8941 84.0295 6.91763 83.7629 6.96469C83.4962 7.01175 83.2844 7.05097 83.1276 7.08234C82.9707 7.11371 82.7119 7.1294 82.3511 7.1294C81.3315 7.1294 80.5785 6.70587 80.0923 5.85881C79.9197 5.56077 79.8335 5.16077 79.8335 4.65881C79.8335 3.30979 80.2099 2.39214 80.9629 1.90587C81.9668 1.26273 84.0138 0.941162 87.104 0.941162C88.6413 0.941162 89.4962 1.00391 89.6687 1.1294C90.2491 1.22351 90.806 1.49018 91.3393 1.9294C91.8727 2.36861 92.2256 2.86273 92.3982 3.41175V3.45881Z" fill="black"/>
<path d="M112.15 3.99999L112.127 4.02352C112.958 5.30979 113.374 6.62744 113.374 7.97646C113.374 9.43528 112.895 10.8 111.939 12.0706C111.139 13.1372 109.382 13.8823 106.668 14.3059C106.637 14.6039 106.668 15.0823 106.762 15.7412C106.888 16.447 106.95 16.847 106.95 16.9412C106.95 17.5059 106.793 18.1176 106.48 18.7765C106.323 19.1059 105.993 19.3804 105.491 19.6C105.005 19.8196 104.456 19.9294 103.844 19.9294C102.935 19.9294 102.205 19.6863 101.656 19.2C101.123 18.698 100.833 18.0078 100.786 17.1294C100.425 15.5921 100.252 13.9765 100.268 12.2823V7.24704C100.268 7.10587 100.299 6.52548 100.362 5.50587C100.425 4.58038 100.582 3.80391 100.833 3.17646C101.162 2.36077 101.633 1.8745 102.244 1.71763C103.656 1.35685 104.935 1.17646 106.08 1.17646C108.856 1.17646 110.872 2.11763 112.127 3.99999H112.15ZM107.609 8.25881C107.797 7.88234 107.891 7.52155 107.891 7.17646C107.891 6.29803 107.319 5.81175 106.174 5.71763C106.095 6.37646 106.056 6.87842 106.056 7.22351C106.056 7.70979 106.064 8.07057 106.08 8.30587C106.111 8.66665 106.15 9.19214 106.197 9.88234C106.339 9.75685 106.519 9.57646 106.739 9.34116C107.146 8.93332 107.429 8.56469 107.586 8.23528L107.609 8.25881Z" fill="black"/>
<path d="M125.698 9.67057C125.698 11.8353 125.227 13.7882 124.286 15.5294C123.141 17.6784 121.439 19.0745 119.18 19.7176C117.956 19.7961 116.85 19.6549 115.862 19.2941C114.89 18.9176 114.38 18.4314 114.333 17.8353C114.05 13.647 113.909 9.62352 113.909 5.76469C113.909 4.33724 113.941 3.31763 114.003 2.70587C114.396 1.85881 115.658 1.43528 117.792 1.43528C118.999 1.43528 120.074 1.57646 121.015 1.85881C122.003 2.31371 122.898 3.06665 123.698 4.11763C125.031 5.8745 125.698 7.72548 125.698 9.67057ZM119.815 7.55293C119.596 7.28626 119.384 7.15293 119.18 7.15293C119.086 7.15293 118.968 7.1843 118.827 7.24704C118.686 7.30979 118.607 7.34116 118.592 7.34116C118.764 8.45489 118.874 10.3059 118.921 12.8941C119.376 12.5804 119.752 12.1176 120.05 11.5059C120.364 10.8941 120.521 10.2745 120.521 9.64705C120.521 8.83136 120.286 8.13332 119.815 7.55293Z" fill="black"/>
<path d="M137.151 9.67057V9.64705C137.371 10.0549 137.481 10.4314 137.481 10.7765C137.481 11.1686 137.292 11.6706 136.916 12.2823C136.586 13.0196 136.006 13.4823 135.175 13.6706C134.892 13.6706 134.233 13.7255 133.198 13.8353C133.182 14.1176 133.214 14.7137 133.292 15.6235C133.386 16.6118 133.433 17.1921 133.433 17.3647C133.433 19.0431 132.814 19.8823 131.575 19.8823C131.073 19.8823 130.281 19.6941 129.198 19.3176C128.194 18.298 127.645 16.7843 127.551 14.7765L127.151 6.77646C127.198 6.19606 127.253 5.32548 127.316 4.16469C127.488 3.17646 127.951 2.50195 128.704 2.14116C129.504 1.62351 130.963 1.36469 133.081 1.36469C134.226 1.36469 135.143 1.47449 135.833 1.6941C136.586 2.35293 136.963 3.05881 136.963 3.81175C136.963 4.81567 136.594 5.54508 135.857 5.99999C135.747 6.10979 135.316 6.25881 134.563 6.44704C133.873 6.63528 133.488 6.80783 133.41 6.96469C133.41 7.32548 133.316 7.84312 133.128 8.51763C133.206 8.59607 133.316 8.63528 133.457 8.63528C133.567 8.63528 133.849 8.57254 134.304 8.44705C134.775 8.32156 135.049 8.25881 135.128 8.25881C135.975 8.2745 136.649 8.74508 137.151 9.67057Z" fill="black"/>
</svg>
