<svg width="364" height="78" viewBox="0 0 364 78" fill="none" xmlns="http://www.w3.org/2000/svg">
<path d="M19.7235 16.0969C19.7235 16.8107 19.7373 18.0048 19.7647 19.6793C19.8196 21.3538 19.8471 22.3283 19.8471 22.6028C19.8471 24.4969 19.6686 26.0342 19.3118 27.2146C18.8725 28.6695 18.0765 30.0558 16.9235 31.3734C15.7157 32.444 13.849 32.9793 11.3235 32.9793C10.198 32.9793 9.08628 32.8832 7.98824 32.691C4.63922 32.1146 2.49804 30.2754 1.56471 27.1734C1.15294 25.8009 0.947059 24.6891 0.947059 23.8381C0.947059 22.8224 1.31765 21.9028 2.05882 21.0793C2.47059 20.6126 3.28039 19.9401 4.48824 19.0616C5.20196 18.5401 5.79216 18.2793 6.25882 18.2793C6.72549 18.2793 7.06863 18.5538 7.28824 19.1028C7.31569 19.1852 7.50784 19.8852 7.86471 21.2028C8.13922 22.2734 8.55098 22.8087 9.1 22.8087C9.75882 22.8087 10.2529 22.3009 10.5824 21.2852C10.6922 19.0342 10.5412 16.4401 10.1294 13.5028L9.14118 6.54399C9.14118 4.73222 9.84118 3.3734 11.2412 2.46752C13.0804 1.9734 14.3569 1.72634 15.0706 1.72634C16.251 1.72634 17.1294 2.11066 17.7059 2.87928C18.5569 4.00477 19.2431 8.41066 19.7647 16.0969H19.7235ZM45.9124 29.9322V29.9734C45.6654 31.291 44.8555 32.1146 43.483 32.444C42.7967 32.6087 42.083 32.691 41.3418 32.691C39.9967 32.691 38.8987 32.3754 38.0477 31.744C37.4438 30.9479 37.0869 30.4263 36.9771 30.1793C36.6203 29.4656 36.4418 28.546 36.4418 27.4205C35.3438 27.3656 34.0948 27.4205 32.6948 27.5852C32.7497 27.8322 32.8046 28.2028 32.8595 28.6969C32.8595 29.8224 32.5438 30.9891 31.9124 32.1969C31.1163 33.3224 29.9497 33.8852 28.4124 33.8852C27.6712 33.8852 26.7516 33.7479 25.6536 33.4734L25.5712 33.391C23.2379 32.2381 22.0712 29.3695 22.0712 24.7852C22.0712 24.4832 22.0987 23.7695 22.1536 22.644C22.3732 18.3342 22.7712 14.9577 23.3477 12.5146C24.1712 9.05575 25.6261 5.95379 27.7124 3.20869C29.332 1.09497 31.6791 0.0381068 34.7536 0.0381068C38.0477 0.0381068 40.532 1.06752 42.2065 3.12634C43.1948 4.33419 43.8948 5.74791 44.3065 7.36752C45.8163 13.1597 46.5712 18.2518 46.5712 22.644C46.5712 25.2244 46.3516 27.6538 45.9124 29.9322ZM35.4948 19.144C35.6869 16.9205 35.5497 13.4479 35.083 8.72634C34.8908 8.53418 34.6026 8.60281 34.2183 8.93222C33.8614 11.2656 33.6006 13.1597 33.4359 14.6146C33.1614 17.1675 33.0653 18.6224 33.1477 18.9793C33.285 19.2812 33.5183 19.4322 33.8477 19.4322C33.9575 19.4322 34.232 19.391 34.6712 19.3087C35.1379 19.1989 35.4124 19.144 35.4948 19.144ZM52.1064 2.09693H52.1476C52.9986 0.94399 54.3025 0.367519 56.0594 0.367519C58.1731 0.367519 59.5594 1.14987 60.2182 2.71458C60.2731 3.4283 60.3005 4.00477 60.3005 4.44399C60.3005 4.99301 60.2456 6.0636 60.1358 7.65576C60.026 9.24791 59.9711 10.195 59.9711 10.4969C60.0809 10.744 60.2594 10.8675 60.5064 10.8675C60.726 10.8675 60.877 10.7577 60.9594 10.5381C60.9319 10.5107 60.9182 10.4146 60.9182 10.2499C60.9182 9.01458 61.4123 7.23026 62.4005 4.89693C63.5809 2.09693 64.8986 0.491048 66.3535 0.0792826C69.4554 -0.112875 71.5417 0.751831 72.6123 2.6734C72.9966 3.35967 73.1888 4.16948 73.1888 5.10281C73.1888 7.6283 72.2966 10.2636 70.5123 13.0087C69.9084 13.9146 69.0162 15.2734 67.8358 17.0852C68.2201 17.7165 68.8927 18.8695 69.8535 20.544C71.6927 23.8656 72.6123 26.4734 72.6123 28.3675C72.6123 29.8224 72.2005 31.0989 71.377 32.1969C70.7731 33.0205 69.7437 33.5009 68.2888 33.6381C66.9711 33.7754 65.3927 32.3067 63.5535 29.2322C62.2084 27.0087 61.3162 25.1558 60.877 23.6734C60.7672 23.5636 60.4927 23.4401 60.0535 23.3028L59.7652 23.591C60.0672 25.3479 60.2182 26.7342 60.2182 27.7499C60.2182 29.5067 59.8888 30.893 59.2299 31.9087C58.1594 32.7322 56.8417 33.144 55.277 33.144C53.9868 33.144 52.9299 32.8283 52.1064 32.1969C50.1574 30.7146 49.1966 26.4322 49.2241 19.3499C49.2241 15.4793 49.5123 11.746 50.0888 8.14987C50.6927 4.52634 51.3652 2.50869 52.1064 2.09693ZM87.7429 6.42046C87.7429 7.54595 87.7703 8.9185 87.8252 10.5381C87.8801 12.1577 87.9076 13.2009 87.9076 13.6675C87.935 19.1028 87.5644 23.9616 86.7958 28.244C86.3017 31.0165 85.039 32.6773 83.0076 33.2263C82.4037 33.2812 81.9919 33.3087 81.7723 33.3087C78.9997 33.3087 77.435 32.0322 77.0782 29.4793C76.4468 25.0871 76.1448 21.1205 76.1723 17.5793C76.1997 13.846 76.488 10.5381 77.037 7.65576L78.1488 4.89693C79.5762 2.83811 81.6076 1.8087 84.2429 1.8087C84.8468 1.8087 85.3821 1.8636 85.8488 1.9734C86.6174 2.33026 87.1252 2.97536 87.3723 3.9087L87.7429 6.42046ZM109.137 13.544C109.247 13.9558 109.288 14.3812 109.261 14.8205C109.261 16.2754 108.671 17.4969 107.49 18.4852C106.42 19.4185 105.267 19.8165 104.032 19.6793C103.812 19.5969 103.4 19.5832 102.796 19.6381C102.851 19.9675 102.755 20.846 102.508 22.2734C102.508 22.9322 102.796 23.4263 103.373 23.7558C104.498 23.4538 105.418 23.4538 106.132 23.7558C107.257 24.195 107.875 24.9361 107.984 25.9793C108.122 27.1597 107.779 28.3675 106.955 29.6028C106.132 30.8107 104.992 31.8263 103.537 32.6499C102.247 33.391 100.724 33.7616 98.9668 33.7616C97.4296 33.7616 96.0433 33.4734 94.808 32.8969C94.2865 32.6499 93.5041 31.8812 92.461 30.591C91.3355 28.7244 90.759 24.7852 90.7315 18.7734C90.7041 15.3146 90.9923 11.3616 91.5963 6.91458C91.9531 4.33418 92.6943 2.65967 93.8198 1.89105L100.696 1.19105C101.877 0.94399 103.002 0.82046 104.073 0.82046C106.214 0.82046 107.477 1.35575 107.861 2.42634C108.026 2.86556 108.108 3.35968 108.108 3.9087C108.108 5.08909 107.669 6.04987 106.79 6.79105C105.912 7.53222 104.69 7.90281 103.126 7.90281C102.741 7.90281 102.439 7.88909 102.22 7.86164C102.028 8.2734 101.918 8.93223 101.89 9.83811C101.835 10.991 101.794 11.6499 101.767 11.8146C101.849 12.1989 102.137 12.446 102.632 12.5558C103.428 11.9244 104.43 11.6087 105.637 11.6087C107.037 11.6087 108.204 12.2538 109.137 13.544ZM153.192 28.0381C153.192 29.4656 152.904 30.5773 152.327 31.3734C151.86 32.0048 151.256 32.4165 150.515 32.6087C150.131 32.7185 149.568 32.8558 148.827 33.0205C148.251 33.1577 147.88 33.2263 147.715 33.2263C146.535 33.2263 145.533 32.7048 144.709 31.6616C143.886 30.591 143.474 29.2734 143.474 27.7087C143.474 27.1048 143.625 25.7048 143.927 23.5087C144.174 21.8067 144.188 20.4616 143.968 19.4734C143.831 19.8852 143.405 21.1342 142.692 23.2205C141.758 25.8558 140.921 27.4616 140.18 28.0381C139.768 28.3675 139.274 28.5322 138.698 28.5322C138.258 28.5322 137.805 28.3812 137.339 28.0793C135.856 26.542 134.704 23.5636 133.88 19.144C133.743 19.8303 133.674 20.5303 133.674 21.244C133.674 21.6558 133.784 22.9597 134.004 25.1558C134.168 26.7205 134.168 27.9695 134.004 28.9028C133.784 30.1107 133.194 31.1812 132.233 32.1146C131.272 32.6636 130.353 32.9381 129.474 32.9381C128.266 32.9381 127.154 32.4028 126.139 31.3322C125.013 29.4107 124.354 28.1342 124.162 27.5028C123.751 26.2675 123.545 24.4146 123.545 21.944C123.545 19.6656 123.737 15.6303 124.121 9.83811C124.258 7.83418 124.862 6.13222 125.933 4.73223C127.031 3.30477 128.5 2.33026 130.339 1.8087C133.99 1.69889 136.762 4.84203 138.656 11.2381C138.794 10.0577 139.219 8.49301 139.933 6.54399C140.976 3.68909 142.156 1.94595 143.474 1.31458C144.764 0.930263 145.862 0.738106 146.768 0.738106C148.278 0.738106 149.431 1.20477 150.227 2.13811C151.27 3.09889 151.998 4.33419 152.409 5.84399C152.684 6.85968 152.862 8.47928 152.945 10.7028C152.972 12.7342 153 14.7656 153.027 16.7969C153.137 21.2989 153.192 25.0322 153.192 27.9969V28.0381ZM179.705 29.9322V29.9734C179.458 31.291 178.649 32.1146 177.276 32.444C176.59 32.6087 175.876 32.691 175.135 32.691C173.79 32.691 172.692 32.3754 171.841 31.744C171.237 30.9479 170.88 30.4263 170.77 30.1793C170.413 29.4656 170.235 28.546 170.235 27.4205C169.137 27.3656 167.888 27.4205 166.488 27.5852C166.543 27.8322 166.598 28.2028 166.652 28.6969C166.652 29.8224 166.337 30.9891 165.705 32.1969C164.909 33.3224 163.743 33.8852 162.205 33.8852C161.464 33.8852 160.545 33.7479 159.447 33.4734L159.364 33.391C157.031 32.2381 155.864 29.3695 155.864 24.7852C155.864 24.4832 155.892 23.7695 155.947 22.644C156.166 18.3342 156.564 14.9577 157.141 12.5146C157.964 9.05575 159.419 5.95379 161.505 3.20869C163.125 1.09497 165.472 0.0381068 168.547 0.0381068C171.841 0.0381068 174.325 1.06752 175.999 3.12634C176.988 4.33419 177.688 5.74791 178.099 7.36752C179.609 13.1597 180.364 18.2518 180.364 22.644C180.364 25.2244 180.145 27.6538 179.705 29.9322ZM169.288 19.144C169.48 16.9205 169.343 13.4479 168.876 8.72634C168.684 8.53418 168.396 8.60281 168.011 8.93222C167.654 11.2656 167.394 13.1597 167.229 14.6146C166.954 17.1675 166.858 18.6224 166.941 18.9793C167.078 19.2812 167.311 19.4322 167.641 19.4322C167.75 19.4322 168.025 19.391 168.464 19.3087C168.931 19.1989 169.205 19.144 169.288 19.144ZM190.429 25.1146H190.47C191.458 24.8675 191.966 24.3734 191.993 23.6322C191.993 23.3577 191.87 23.0969 191.623 22.8499C191.403 22.6028 190.539 22.0126 189.029 21.0793C187.766 20.2832 186.846 19.6107 186.27 19.0616C185.474 18.293 184.746 17.2499 184.088 15.9322C183.237 14.2028 182.811 12.446 182.811 10.6616C182.811 8.08124 183.827 5.77536 185.858 3.74399C188.109 1.49301 190.799 0.367519 193.929 0.367519C195.741 0.367519 197.374 0.793009 198.829 1.64399C199.735 2.19301 200.709 3.2087 201.752 4.69105C202.192 5.34987 202.425 5.96752 202.452 6.54399C202.48 7.23026 202.15 8.06752 201.464 9.05575L201.505 9.09693C200.627 10.3322 199.707 10.9499 198.746 10.9499C198.417 10.9499 197.964 10.8812 197.388 10.744C196.509 10.5244 196.001 9.75575 195.864 8.43811C195.809 7.91654 195.411 7.65576 194.67 7.65576C194.286 7.65576 193.943 7.75183 193.641 7.94399C193.339 8.49301 193.188 9.04203 193.188 9.59105C193.188 10.5244 193.627 11.3067 194.505 11.9381C197.744 14.244 199.652 15.6714 200.229 16.2205C202.288 18.1695 203.386 20.2146 203.523 22.3558C203.55 22.8773 203.592 23.5773 203.646 24.4558C203.701 27.9969 201.574 30.7558 197.264 32.7322C195.644 33.4734 194.107 33.844 192.652 33.844C192.433 33.844 192.131 33.8165 191.746 33.7616L191.664 33.7205C186.393 32.8695 183.552 30.8793 183.141 27.7499C183.031 27.0361 182.948 26.542 182.893 26.2675C182.866 25.9656 182.852 25.8695 182.852 25.9793C182.852 25.2381 183.072 24.593 183.511 24.044C183.95 23.495 184.444 23.2205 184.993 23.2205C185.241 23.2205 185.968 23.5499 187.176 24.2087C188.384 24.8401 189.221 25.1558 189.688 25.1558C189.88 25.1558 190.113 25.1283 190.388 25.0734L190.429 25.1146ZM229.167 4.6087L229.291 5.84399C229.291 10.9224 225.709 16.5224 218.544 22.644C218.324 23.1107 218.475 23.3989 218.997 23.5087C220.013 22.9871 221.646 22.7263 223.897 22.7263C225.269 22.7263 226.285 22.8361 226.944 23.0558C228.234 23.495 228.893 24.6342 228.92 26.4734C228.92 26.9126 228.838 27.4067 228.673 27.9558C227.987 30.2067 227.067 31.6342 225.915 32.2381C222.73 33.0067 219.683 33.391 216.773 33.391C213.534 33.391 210.83 32.8969 208.662 31.9087C207.317 31.3048 206.397 30.0283 205.903 28.0793C206.013 25.3891 206.548 23.0558 207.509 21.0793C208.469 19.0754 210.144 16.8793 212.532 14.491C214.646 13.2009 215.867 11.9793 216.197 10.8263C215.977 10.6891 215.689 10.6205 215.332 10.6205C214.948 10.6205 214.522 10.6616 214.056 10.744C213.589 10.8263 213.218 10.895 212.944 10.9499C212.669 11.0048 212.217 11.0322 211.585 11.0322C209.801 11.0322 208.483 10.291 207.632 8.8087C207.33 8.28713 207.179 7.58713 207.179 6.7087C207.179 4.34791 207.838 2.74203 209.156 1.89105C210.913 0.765558 214.495 0.202813 219.903 0.202813C222.593 0.202813 224.089 0.312617 224.391 0.532224C225.407 0.696929 226.381 1.1636 227.315 1.93222C228.248 2.70085 228.866 3.56556 229.167 4.52634V4.6087ZM263.734 5.55575L263.693 5.59693C265.147 7.84791 265.875 10.1538 265.875 12.5146C265.875 15.0675 265.038 17.4558 263.363 19.6793C261.963 21.546 258.889 22.8499 254.14 23.591C254.085 24.1126 254.14 24.9499 254.304 26.1028C254.524 27.3381 254.634 28.0381 254.634 28.2028C254.634 29.191 254.359 30.2616 253.81 31.4146C253.536 31.991 252.959 32.4714 252.081 32.8558C251.23 33.2401 250.269 33.4322 249.198 33.4322C247.606 33.4322 246.33 33.0067 245.369 32.1558C244.436 31.2773 243.928 30.0695 243.845 28.5322C243.214 25.842 242.912 23.0146 242.94 20.0499V11.2381C242.94 10.991 242.994 9.97536 243.104 8.19105C243.214 6.57144 243.489 5.21262 243.928 4.11458C244.504 2.68713 245.328 1.83615 246.398 1.56164C248.869 0.930263 251.106 0.614576 253.11 0.614576C257.969 0.614576 261.496 2.26164 263.693 5.55575H263.734ZM255.787 13.0087C256.116 12.3499 256.281 11.7185 256.281 11.1146C256.281 9.57732 255.279 8.72634 253.275 8.56164C253.138 9.71458 253.069 10.593 253.069 11.1969C253.069 12.0479 253.083 12.6793 253.11 13.091C253.165 13.7224 253.234 14.642 253.316 15.8499C253.563 15.6303 253.879 15.3146 254.263 14.9028C254.977 14.1891 255.471 13.544 255.745 12.9675L255.787 13.0087ZM283.9 27.091H283.859C283.557 29.4518 282.692 31.0165 281.265 31.7852C279.288 32.5812 277.284 32.9793 275.253 32.9793C269.434 32.9793 266.524 29.8361 266.524 23.5499C266.524 21.9303 266.524 21.1205 266.524 21.1205C266.524 20.8185 266.537 20.3518 266.565 19.7205C266.592 19.2263 266.606 18.8695 266.606 18.6499C266.469 13.1048 266.702 8.67144 267.306 5.34987C267.8 3.94987 268.363 2.98909 268.994 2.46752C269.653 1.94595 270.655 1.63026 272 1.52046C272.302 1.49301 272.632 1.47928 272.988 1.47928C274.169 1.47928 275.02 1.72634 275.541 2.22046C275.761 2.44007 276.173 3.08517 276.777 4.15575C277.243 5.96752 277.477 8.2734 277.477 11.0734C277.477 12.8028 277.312 15.5067 276.983 19.1852C276.763 21.7381 276.735 23.0969 276.9 23.2616C277.943 22.7401 279.234 22.4793 280.771 22.4793C281.155 22.4793 281.43 22.5205 281.594 22.6028C282.39 22.8773 282.981 23.495 283.365 24.4558C283.612 25.0871 283.79 25.993 283.9 27.1734V27.091ZM310.053 29.9322V29.9734C309.806 31.291 308.996 32.1146 307.624 32.444C306.937 32.6087 306.224 32.691 305.482 32.691C304.137 32.691 303.039 32.3754 302.188 31.744C301.584 30.9479 301.228 30.4263 301.118 30.1793C300.761 29.4656 300.582 28.546 300.582 27.4205C299.484 27.3656 298.235 27.4205 296.835 27.5852C296.89 27.8322 296.945 28.2028 297 28.6969C297 29.8224 296.684 30.9891 296.053 32.1969C295.257 33.3224 294.09 33.8852 292.553 33.8852C291.812 33.8852 290.892 33.7479 289.794 33.4734L289.712 33.391C287.379 32.2381 286.212 29.3695 286.212 24.7852C286.212 24.4832 286.239 23.7695 286.294 22.644C286.514 18.3342 286.912 14.9577 287.488 12.5146C288.312 9.05575 289.767 5.95379 291.853 3.20869C293.473 1.09497 295.82 0.0381068 298.894 0.0381068C302.188 0.0381068 304.673 1.06752 306.347 3.12634C307.335 4.33419 308.035 5.74791 308.447 7.36752C309.957 13.1597 310.712 18.2518 310.712 22.644C310.712 25.2244 310.492 27.6538 310.053 29.9322ZM299.635 19.144C299.828 16.9205 299.69 13.4479 299.224 8.72634C299.031 8.53418 298.743 8.60281 298.359 8.93222C298.002 11.2656 297.741 13.1597 297.577 14.6146C297.302 17.1675 297.206 18.6224 297.288 18.9793C297.426 19.2812 297.659 19.4322 297.988 19.4322C298.098 19.4322 298.373 19.391 298.812 19.3087C299.279 19.1989 299.553 19.144 299.635 19.144ZM337.535 9.26164V9.22046C337.81 12.4048 337.947 15.4107 337.947 18.2381C337.947 26.9401 336.506 31.8263 333.624 32.8969C333.184 33.0616 332.676 33.144 332.1 33.144C331.414 33.144 330.522 33.0067 329.424 32.7322C328.051 31.9636 325.951 27.5577 323.124 19.5146C323.618 21.6283 323.865 23.7146 323.865 25.7734C323.865 28.0518 323.535 29.8636 322.876 31.2087C322.574 31.8401 322.025 32.3891 321.229 32.8558C320.461 33.295 319.72 33.4734 319.006 33.391C316.727 33.1714 315.176 31.7852 314.353 29.2322C313.804 27.5303 313.529 24.895 313.529 21.3263C313.529 14.3812 313.818 9.71458 314.394 7.32634C314.833 5.54203 315.835 4.0734 317.4 2.92046C318.306 2.26164 319.322 1.93222 320.447 1.93222C321.051 1.93222 321.655 2.0283 322.259 2.22046C323.851 3.07144 325.416 5.61066 326.953 9.83811C327.584 11.5401 328.174 13.5577 328.724 15.891C328.449 14.0793 328.216 12.4871 328.024 11.1146C327.694 8.69889 327.529 6.9283 327.529 5.80281C327.529 4.45771 327.886 3.34595 328.6 2.46752C329.424 1.45183 330.59 0.943988 332.1 0.943988C334.763 0.943988 336.424 2.42634 337.082 5.39105C337.22 6.02242 337.371 7.31262 337.535 9.26164ZM342.41 1.84987H342.451C343.137 1.49301 343.878 1.31458 344.675 1.31458C346.377 1.31458 347.598 1.98713 348.339 3.33222C348.943 3.99105 349.52 5.19889 350.069 6.95575C350.782 9.26164 351.194 10.5107 351.304 10.7028C352.512 5.54203 353.926 2.16556 355.545 0.5734C356.314 0.271439 357.124 0.120458 357.975 0.120458C359.265 0.120458 360.294 0.463596 361.063 1.14987C362.518 2.11066 363.245 3.68909 363.245 5.88517C362.998 8.1636 362.298 10.6205 361.145 13.2558C360.459 14.793 359.306 17.0577 357.686 20.0499C357.686 21.2303 357.673 22.9734 357.645 25.2793C357.59 27.3107 357.275 28.9989 356.698 30.344C355.984 31.9636 354.79 33.0616 353.116 33.6381C352.677 33.693 352.361 33.7205 352.169 33.7205C349.973 33.7205 348.449 32.8558 347.598 31.1263C347.214 30.0283 347.022 28.5871 347.022 26.8028C347.022 25.9518 347.035 25.1558 347.063 24.4146C347.09 23.4263 347.09 22.6852 347.063 22.191C342.561 14.5048 340.31 9.04203 340.31 5.80281C340.31 3.88124 341.01 2.5636 342.41 1.84987ZM21.8235 47.5558L21.7824 47.5969C23.2373 49.8479 23.9647 52.1538 23.9647 54.5146C23.9647 57.0675 23.1275 59.4558 21.4529 61.6793C20.0529 63.546 16.9784 64.8499 12.2294 65.591C12.1745 66.1126 12.2294 66.9499 12.3941 68.1028C12.6137 69.3381 12.7235 70.0381 12.7235 70.2028C12.7235 71.191 12.449 72.2616 11.9 73.4146C11.6255 73.991 11.049 74.4714 10.1706 74.8558C9.31961 75.2401 8.35882 75.4322 7.28824 75.4322C5.69608 75.4322 4.41961 75.0067 3.45882 74.1558C2.52549 73.2773 2.01765 72.0695 1.93529 70.5322C1.30392 67.842 1.00196 65.0146 1.02941 62.0499V53.2381C1.02941 52.991 1.08431 51.9754 1.19412 50.191C1.30392 48.5714 1.57843 47.2126 2.01765 46.1146C2.59412 44.6871 3.41765 43.8361 4.48824 43.5616C6.95882 42.9303 9.19608 42.6146 11.2 42.6146C16.0588 42.6146 19.5863 44.2616 21.7824 47.5558H21.8235ZM13.8765 55.0087C14.2059 54.3499 14.3706 53.7185 14.3706 53.1146C14.3706 51.5773 13.3686 50.7263 11.3647 50.5616C11.2275 51.7146 11.1588 52.593 11.1588 53.1969C11.1588 54.0479 11.1726 54.6793 11.2 55.091C11.2549 55.7224 11.3235 56.642 11.4059 57.8499C11.6529 57.6303 11.9686 57.3146 12.3529 56.9028C13.0667 56.1891 13.5608 55.544 13.8353 54.9675L13.8765 55.0087ZM47.9606 68.3087L48.0018 68.3499C47.2881 70.5734 46.0253 72.3303 44.2136 73.6205C42.4292 74.9107 40.3567 75.5558 37.9959 75.5558C33.6312 75.5558 30.241 73.9087 27.8253 70.6146C25.7665 67.8146 24.7371 64.4107 24.7371 60.4028C24.7371 58.5636 24.9018 56.8616 25.2312 55.2969C26.741 48.1322 29.939 44.0969 34.8253 43.191C35.2645 43.1087 35.7312 43.0675 36.2253 43.0675C38.4214 43.0675 40.5489 43.795 42.6077 45.2499C44.694 46.7048 46.094 48.4754 46.8077 50.5616C48.3449 55.091 49.1136 58.6185 49.1136 61.144C49.1136 63.2852 48.7155 65.6734 47.9194 68.3087H47.9606ZM37.7489 65.344V65.3028C38.5449 65.1656 38.943 63.642 38.943 60.7322C38.943 59.0577 38.792 57.5205 38.49 56.1205C38.1881 54.693 37.8587 53.9518 37.5018 53.8969C36.8979 53.7322 36.3489 54.391 35.8547 55.8734C35.3606 57.3558 35.1136 58.9891 35.1136 60.7734C35.1136 64.095 35.992 65.6185 37.7489 65.344ZM81.5339 55.544C81.6437 55.9558 81.6849 56.3812 81.6574 56.8205C81.6574 58.2754 81.0672 59.4969 79.8869 60.4852C78.8163 61.4185 77.6633 61.8165 76.428 61.6793C76.2084 61.5969 75.7967 61.5832 75.1927 61.6381C75.2476 61.9675 75.1516 62.846 74.9045 64.2734C74.9045 64.9322 75.1927 65.4263 75.7692 65.7558C76.8947 65.4538 77.8143 65.4538 78.528 65.7558C79.6535 66.195 80.2712 66.9361 80.381 67.9793C80.5182 69.1597 80.1751 70.3675 79.3516 71.6028C78.528 72.8107 77.3888 73.8263 75.9339 74.6499C74.6437 75.391 73.1202 75.7616 71.3633 75.7616C69.8261 75.7616 68.4398 75.4734 67.2045 74.8969C66.6829 74.6499 65.9006 73.8812 64.8574 72.591C63.732 70.7244 63.1555 66.7852 63.128 60.7734C63.1006 57.3146 63.3888 53.3616 63.9927 48.9146C64.3496 46.3342 65.0908 44.6597 66.2163 43.891L73.0927 43.191C74.2731 42.944 75.3986 42.8205 76.4692 42.8205C78.6104 42.8205 79.8731 43.3558 80.2574 44.4263C80.4222 44.8656 80.5045 45.3597 80.5045 45.9087C80.5045 47.0891 80.0653 48.0499 79.1869 48.791C78.3084 49.5322 77.0869 49.9028 75.5222 49.9028C75.1378 49.9028 74.8359 49.8891 74.6163 49.8616C74.4241 50.2734 74.3143 50.9322 74.2869 51.8381C74.232 52.991 74.1908 53.6499 74.1633 53.8146C74.2457 54.1989 74.5339 54.446 75.028 54.5558C75.8241 53.9244 76.8261 53.6087 78.0339 53.6087C79.4339 53.6087 80.6006 54.2538 81.5339 55.544ZM114.063 70.0381C114.063 71.4656 113.775 72.5773 113.198 73.3734C112.731 74.0048 112.128 74.4165 111.386 74.6087C111.002 74.7185 110.439 74.8558 109.698 75.0205C109.122 75.1577 108.751 75.2263 108.586 75.2263C107.406 75.2263 106.404 74.7048 105.58 73.6616C104.757 72.591 104.345 71.2734 104.345 69.7087C104.345 69.1048 104.496 67.7048 104.798 65.5087C105.045 63.8067 105.059 62.4616 104.839 61.4734C104.702 61.8852 104.277 63.1342 103.563 65.2205C102.63 67.8558 101.792 69.4616 101.051 70.0381C100.639 70.3675 100.145 70.5322 99.5687 70.5322C99.1295 70.5322 98.6766 70.3812 98.2099 70.0793C96.7276 68.542 95.5746 65.5636 94.7511 61.144C94.6138 61.8303 94.5452 62.5303 94.5452 63.244C94.5452 63.6558 94.655 64.9597 94.8746 67.1558C95.0393 68.7205 95.0393 69.9695 94.8746 70.9028C94.655 72.1107 94.0648 73.1812 93.104 74.1146C92.1432 74.6636 91.2236 74.9381 90.3452 74.9381C89.1374 74.9381 88.0256 74.4028 87.0099 73.3322C85.8844 71.4107 85.2256 70.1342 85.0334 69.5028C84.6217 68.2675 84.4158 66.4146 84.4158 63.944C84.4158 61.6656 84.6079 57.6303 84.9923 51.8381C85.1295 49.8342 85.7334 48.1322 86.804 46.7322C87.9021 45.3048 89.3707 44.3303 91.2099 43.8087C94.8609 43.6989 97.6334 46.842 99.5276 53.2381C99.6648 52.0577 100.09 50.493 100.804 48.544C101.847 45.6891 103.028 43.946 104.345 43.3146C105.635 42.9303 106.733 42.7381 107.639 42.7381C109.149 42.7381 110.302 43.2048 111.098 44.1381C112.141 45.0989 112.869 46.3342 113.28 47.844C113.555 48.8597 113.733 50.4793 113.816 52.7028C113.843 54.7342 113.871 56.7656 113.898 58.7969C114.008 63.2989 114.063 67.0322 114.063 69.9969V70.0381ZM135.182 55.544C135.292 55.9558 135.333 56.3812 135.306 56.8205C135.306 58.2754 134.716 59.4969 133.535 60.4852C132.465 61.4185 131.312 61.8165 130.076 61.6793C129.857 61.5969 129.445 61.5832 128.841 61.6381C128.896 61.9675 128.8 62.846 128.553 64.2734C128.553 64.9322 128.841 65.4263 129.418 65.7558C130.543 65.4538 131.463 65.4538 132.176 65.7558C133.302 66.195 133.92 66.9361 134.029 67.9793C134.167 69.1597 133.824 70.3675 133 71.6028C132.176 72.8107 131.037 73.8263 129.582 74.6499C128.292 75.391 126.769 75.7616 125.012 75.7616C123.475 75.7616 122.088 75.4734 120.853 74.8969C120.331 74.6499 119.549 73.8812 118.506 72.591C117.38 70.7244 116.804 66.7852 116.776 60.7734C116.749 57.3146 117.037 53.3616 117.641 48.9146C117.998 46.3342 118.739 44.6597 119.865 43.891L126.741 43.191C127.922 42.944 129.047 42.8205 130.118 42.8205C132.259 42.8205 133.522 43.3558 133.906 44.4263C134.071 44.8656 134.153 45.3597 134.153 45.9087C134.153 47.0891 133.714 48.0499 132.835 48.791C131.957 49.5322 130.735 49.9028 129.171 49.9028C128.786 49.9028 128.484 49.8891 128.265 49.8616C128.073 50.2734 127.963 50.9322 127.935 51.8381C127.88 52.991 127.839 53.6499 127.812 53.8146C127.894 54.1989 128.182 54.446 128.676 54.5558C129.473 53.9244 130.475 53.6087 131.682 53.6087C133.082 53.6087 134.249 54.2538 135.182 55.544ZM161.288 71.191H161.247C160.862 72.0146 160.217 72.8518 159.311 73.7028C158.131 74.7734 156.937 75.3773 155.729 75.5146C153.396 75.7616 151.007 73.3871 148.564 68.391C148.647 69.1048 148.688 69.7224 148.688 70.244C148.688 71.946 148.276 73.291 147.452 74.2793C146.19 75.1577 144.927 75.5969 143.664 75.5969C143.115 75.5969 142.621 75.542 142.182 75.4322C140.562 75.0205 139.505 74.4989 139.011 73.8675C138.352 73.044 138.023 71.5616 138.023 69.4205V67.7734C137.941 67.691 137.968 65.2342 138.105 60.4028C138.27 54.9401 138.586 50.7812 139.052 47.9263C139.409 45.8675 140.864 44.4538 143.417 43.6852C144.625 43.3283 147 42.9714 150.541 42.6146C154.741 42.7518 157.623 44.1518 159.188 46.8146C160.368 49.4773 160.945 51.9205 160.917 54.144C160.89 56.4224 160.272 58.3303 159.064 59.8675C158.872 60.1146 158.09 60.842 156.717 62.0499C159.819 65.3989 161.37 68.1989 161.37 70.4499C161.37 70.6146 161.343 70.8616 161.288 71.191ZM149.511 52.0028H149.47C149.305 51.9479 149.168 51.9205 149.058 51.9205C148.949 51.9205 148.523 52.1126 147.782 52.4969C147.672 52.6067 147.631 53.3067 147.658 54.5969C147.686 56.1067 147.7 57.5342 147.7 58.8793C148.743 58.5224 149.621 58.0146 150.335 57.3558C151.076 56.6695 151.447 55.9558 151.447 55.2146C151.447 54.1989 150.801 53.1283 149.511 52.0028ZM165.633 43.8499H165.674C166.36 43.493 167.101 43.3146 167.897 43.3146C169.599 43.3146 170.821 43.9871 171.562 45.3322C172.166 45.991 172.742 47.1989 173.291 48.9558C174.005 51.2616 174.417 52.5107 174.527 52.7028C175.734 47.542 177.148 44.1656 178.768 42.5734C179.536 42.2714 180.346 42.1205 181.197 42.1205C182.487 42.1205 183.517 42.4636 184.285 43.1499C185.74 44.1107 186.468 45.6891 186.468 47.8852C186.221 50.1636 185.521 52.6205 184.368 55.2558C183.682 56.793 182.529 59.0577 180.909 62.0499C180.909 63.2303 180.895 64.9734 180.868 67.2793C180.813 69.3107 180.497 70.9989 179.921 72.344C179.207 73.9636 178.013 75.0616 176.338 75.6381C175.899 75.693 175.583 75.7205 175.391 75.7205C173.195 75.7205 171.672 74.8558 170.821 73.1263C170.436 72.0283 170.244 70.5871 170.244 68.8028C170.244 67.9518 170.258 67.1558 170.285 66.4146C170.313 65.4263 170.313 64.6852 170.285 64.191C165.783 56.5048 163.533 51.042 163.533 47.8028C163.533 45.8812 164.233 44.5636 165.633 43.8499ZM211.242 48.2146H211.283C211.366 48.6263 211.407 49.1616 211.407 49.8205C211.379 51.193 211.05 52.2361 210.419 52.9499C210.171 53.2244 209.06 53.5538 207.083 53.9381C205.134 54.295 204.132 54.5283 204.077 54.6381C204.022 54.9401 204.338 57.8087 205.024 63.244C205.162 64.342 205.23 65.4401 205.23 66.5381C205.23 69.0361 204.901 71.095 204.242 72.7146C203.419 74.746 202.211 75.7342 200.619 75.6793C198.038 75.5969 196.24 74.7871 195.224 73.2499C194.456 72.0969 194.058 70.2714 194.03 67.7734C194.03 67.993 194.085 66.5518 194.195 63.4499L194.401 58.1793C194.511 56.5322 194.689 55.1048 194.936 53.8969C194.771 53.9518 194.524 53.9793 194.195 53.9793C193.262 53.9793 192.328 53.8283 191.395 53.5263C190.132 53.1146 189.268 52.5107 188.801 51.7146C188.142 50.5891 187.813 49.5322 187.813 48.544C187.813 46.8969 188.719 45.6205 190.53 44.7146C192.864 43.5342 195.677 42.944 198.971 42.944C200.701 42.944 202.513 43.1087 204.407 43.4381C205.313 43.7675 206.685 44.2754 208.524 44.9616C210.062 45.7577 210.968 46.842 211.242 48.2146ZM237.992 47.7616L238.034 47.7205C238.143 49.0107 238.198 50.4518 238.198 52.044C238.198 58.3303 237.196 64.1499 235.192 69.5028C234.671 70.9028 233.847 72.1793 232.722 73.3322C231.624 74.4577 230.471 75.1989 229.263 75.5558C228.138 75.7205 227.039 75.8028 225.969 75.8028C222.922 75.8028 220.369 75.0891 218.31 73.6616C216.334 72.3165 214.947 70.4087 214.151 67.9381C213.547 66.0714 213.245 63.491 213.245 60.1969C213.245 55.2558 213.726 51.1381 214.687 47.844C214.989 46.8283 215.634 45.9224 216.622 45.1263C217.638 44.3303 218.653 43.8773 219.669 43.7675C220.547 43.6852 221.412 43.9185 222.263 44.4675C223.141 44.9891 223.787 45.6754 224.198 46.5263C224.281 47.1852 224.322 47.8852 224.322 48.6263C224.322 49.5322 224.075 51.4675 223.581 54.4322C223.087 57.3969 222.84 59.3048 222.84 60.1558C222.84 60.9793 222.894 61.7067 223.004 62.3381C223.169 62.8048 223.622 63.2714 224.363 63.7381C225.269 63.8479 225.914 63.7381 226.298 63.4087C227.012 62.6401 227.451 61.6244 227.616 60.3616C227.589 58.495 227.63 56.093 227.74 53.1558C228.014 50.795 228.192 49.3401 228.275 48.791C228.494 47.2263 228.755 46.0322 229.057 45.2087C230.045 43.6165 231.171 42.8342 232.434 42.8616C233.614 42.8891 234.698 43.342 235.687 44.2205C236.675 45.0989 237.443 46.2793 237.992 47.7616ZM264.196 71.191H264.155C263.77 72.0146 263.125 72.8518 262.219 73.7028C261.039 74.7734 259.845 75.3773 258.637 75.5146C256.304 75.7616 253.916 73.3871 251.472 68.391C251.555 69.1048 251.596 69.7224 251.596 70.244C251.596 71.946 251.184 73.291 250.361 74.2793C249.098 75.1577 247.835 75.5969 246.572 75.5969C246.023 75.5969 245.529 75.542 245.09 75.4322C243.47 75.0205 242.414 74.4989 241.919 73.8675C241.261 73.044 240.931 71.5616 240.931 69.4205V67.7734C240.849 67.691 240.876 65.2342 241.014 60.4028C241.178 54.9401 241.494 50.7812 241.961 47.9263C242.318 45.8675 243.772 44.4538 246.325 43.6852C247.533 43.3283 249.908 42.9714 253.449 42.6146C257.649 42.7518 260.531 44.1518 262.096 46.8146C263.276 49.4773 263.853 51.9205 263.825 54.144C263.798 56.4224 263.18 58.3303 261.972 59.8675C261.78 60.1146 260.998 60.842 259.625 62.0499C262.727 65.3989 264.278 68.1989 264.278 70.4499C264.278 70.6146 264.251 70.8616 264.196 71.191ZM252.419 52.0028H252.378C252.214 51.9479 252.076 51.9205 251.967 51.9205C251.857 51.9205 251.431 52.1126 250.69 52.4969C250.58 52.6067 250.539 53.3067 250.567 54.5969C250.594 56.1067 250.608 57.5342 250.608 58.8793C251.651 58.5224 252.529 58.0146 253.243 57.3558C253.984 56.6695 254.355 55.9558 254.355 55.2146C254.355 54.1989 253.71 53.1283 252.419 52.0028ZM289.994 46.6087L290.117 47.844C290.117 52.9224 286.535 58.5224 279.37 64.644C279.151 65.1107 279.302 65.3989 279.823 65.5087C280.839 64.9871 282.472 64.7263 284.723 64.7263C286.096 64.7263 287.111 64.8361 287.77 65.0558C289.06 65.495 289.719 66.6342 289.747 68.4734C289.747 68.9126 289.664 69.4067 289.5 69.9558C288.813 72.2067 287.894 73.6342 286.741 74.2381C283.556 75.0067 280.509 75.391 277.6 75.391C274.36 75.391 271.656 74.8969 269.488 73.9087C268.143 73.3048 267.223 72.0283 266.729 70.0793C266.839 67.3891 267.374 65.0558 268.335 63.0793C269.296 61.0754 270.97 58.8793 273.358 56.491C275.472 55.2009 276.694 53.9793 277.023 52.8263C276.803 52.6891 276.515 52.6205 276.158 52.6205C275.774 52.6205 275.349 52.6616 274.882 52.744C274.415 52.8263 274.045 52.895 273.77 52.9499C273.496 53.0048 273.043 53.0322 272.411 53.0322C270.627 53.0322 269.309 52.291 268.458 50.8087C268.156 50.2871 268.005 49.5871 268.005 48.7087C268.005 46.3479 268.664 44.742 269.982 43.891C271.739 42.7656 275.321 42.2028 280.729 42.2028C283.419 42.2028 284.915 42.3126 285.217 42.5322C286.233 42.6969 287.207 43.1636 288.141 43.9322C289.074 44.7009 289.692 45.5656 289.994 46.5263V46.6087ZM310.893 55.544C311.003 55.9558 311.044 56.3812 311.017 56.8205C311.017 58.2754 310.427 59.4969 309.246 60.4852C308.176 61.4185 307.023 61.8165 305.787 61.6793C305.568 61.5969 305.156 61.5832 304.552 61.6381C304.607 61.9675 304.511 62.846 304.264 64.2734C304.264 64.9322 304.552 65.4263 305.129 65.7558C306.254 65.4538 307.174 65.4538 307.887 65.7558C309.013 66.195 309.631 66.9361 309.74 67.9793C309.878 69.1597 309.534 70.3675 308.711 71.6028C307.887 72.8107 306.748 73.8263 305.293 74.6499C304.003 75.391 302.48 75.7616 300.723 75.7616C299.185 75.7616 297.799 75.4734 296.564 74.8969C296.042 74.6499 295.26 73.8812 294.217 72.591C293.091 70.7244 292.515 66.7852 292.487 60.7734C292.46 57.3146 292.748 53.3616 293.352 48.9146C293.709 46.3342 294.45 44.6597 295.576 43.891L302.452 43.191C303.633 42.944 304.758 42.8205 305.829 42.8205C307.97 42.8205 309.233 43.3558 309.617 44.4263C309.782 44.8656 309.864 45.3597 309.864 45.9087C309.864 47.0891 309.425 48.0499 308.546 48.791C307.668 49.5322 306.446 49.9028 304.882 49.9028C304.497 49.9028 304.195 49.8891 303.976 49.8616C303.783 50.2734 303.674 50.9322 303.646 51.8381C303.591 52.991 303.55 53.6499 303.523 53.8146C303.605 54.1989 303.893 54.446 304.387 54.5558C305.183 53.9244 306.185 53.6087 307.393 53.6087C308.793 53.6087 309.96 54.2538 310.893 55.544ZM334.858 47.0616H334.816C335.53 48.6538 335.887 50.1361 335.887 51.5087C335.887 53.1009 335.393 54.3499 334.405 55.2558C332.236 56.8479 331.028 59.442 330.781 63.0381C330.424 64.5205 329.436 65.5087 327.816 66.0028C327.514 66.1126 326.032 66.346 323.369 66.7028C322.958 66.7577 322.477 66.7303 321.928 66.6205C321.489 66.5107 321.05 66.4146 320.61 66.3322C319.705 65.2067 319.252 64.1499 319.252 63.1616C319.252 61.9812 320.048 60.293 321.64 58.0969C323.259 55.8734 324.097 54.1028 324.152 52.7852L323.863 52.4558C323.287 53.142 322.683 53.8283 322.052 54.5146C321.42 55.1734 320.693 55.6126 319.869 55.8322C319.403 55.942 318.95 55.9969 318.51 55.9969C317.467 55.9969 316.356 55.6812 315.175 55.0499C313.556 54.1714 312.828 52.4009 312.993 49.7381C314.585 46.444 317.097 44.3165 320.528 43.3558C320.83 43.3832 321.352 43.3009 322.093 43.1087C322.834 42.8891 323.397 42.7793 323.781 42.7793C329.793 42.642 333.485 44.0695 334.858 47.0616ZM330.369 70.3263V70.2852C330.589 70.7518 330.699 71.2734 330.699 71.8499C330.699 72.3165 330.534 73.2499 330.205 74.6499C328.832 76.6812 326.938 77.6969 324.522 77.6969C321.859 77.6969 320.061 76.7224 319.128 74.7734C318.963 74.2793 318.881 73.7714 318.881 73.2499C318.881 71.6028 319.595 70.1342 321.022 68.844C322.477 68.1028 324.001 67.7322 325.593 67.7322C327.926 67.7322 329.518 68.5969 330.369 70.3263Z" fill="black"/>
</svg>
