<svg width="104" height="36" viewBox="0 0 104 36" fill="none" xmlns="http://www.w3.org/2000/svg">
<g clip-path="url(#clip0)">
<path d="M6.49875 15.037C6.82267 15.0773 7.16684 14.9966 7.51101 14.7951C7.85518 14.5935 8.11837 14.3516 8.23984 14.0694C8.54352 13.4647 8.68524 12.6383 8.68524 11.6103C8.68524 10.6831 8.56377 9.73572 8.34107 8.78836C9.61652 12.4166 10.5681 14.3919 11.1957 14.7346C11.7018 14.8555 12.0864 14.916 12.4104 14.916C12.6736 14.916 12.8963 14.8757 13.0987 14.7951C14.3944 14.3113 15.0625 12.1142 15.0625 8.20381C15.0625 6.93393 15.0018 5.58343 14.8803 4.1523V4.17245C14.7993 3.28556 14.7386 2.72117 14.6778 2.43897C14.3742 1.06831 13.6251 0.403137 12.4306 0.403137C11.7423 0.403137 11.2159 0.624862 10.8515 1.08847C10.5276 1.4916 10.3656 1.97537 10.3656 2.58007C10.3656 3.08399 10.4466 3.89026 10.5883 4.97873C10.6693 5.60359 10.7908 6.30907 10.9122 7.1355C10.6693 6.08735 10.4061 5.18029 10.1024 4.41434C9.41407 2.5196 8.70549 1.37066 7.97666 0.987684C7.71347 0.907057 7.43003 0.866743 7.16685 0.866743C6.66071 0.866743 6.19507 1.00784 5.79017 1.31019C5.08158 1.83427 4.63619 2.49944 4.43373 3.30571C4.17054 4.37402 4.04907 6.49048 4.04907 9.61478C4.04907 11.2273 4.17054 12.4166 4.41349 13.1825C4.7779 14.3113 5.48649 14.9362 6.49875 15.037Z" fill="#1D1D1B"/>
<path d="M19.0306 14.9764C19.1318 14.9764 19.314 14.9563 19.5975 14.9361C20.5085 14.6942 21.0956 13.9484 21.3183 12.6987C21.6625 10.7637 21.8245 8.58674 21.8245 6.12762C21.8245 5.92605 21.8042 5.44229 21.784 4.71664C21.7637 3.991 21.7435 3.36614 21.7435 2.86222L21.5815 1.73344C21.46 1.31015 21.2373 1.02795 20.8932 0.866699C20.6907 0.826385 20.4478 0.786072 20.1643 0.786072C18.9699 0.786072 18.0588 1.24968 17.411 2.17689L16.8846 3.42661C16.6417 4.71664 16.4999 6.20824 16.4999 7.90141C16.4797 9.4938 16.6214 11.2878 16.9049 13.2631C17.0668 14.3919 17.7754 14.9764 19.0306 14.9764Z" fill="#1D1D1B"/>
<path d="M29.0924 8.82867C29.6593 8.88914 30.1654 8.70773 30.6513 8.28444C31.1777 7.84099 31.4611 7.29675 31.4611 6.63158C31.4814 6.43001 31.4611 6.2486 31.4004 6.04703C30.9752 5.46249 30.4488 5.18029 29.8212 5.18029C29.2746 5.18029 28.8292 5.32139 28.4648 5.60358C28.2421 5.56327 28.1206 5.44233 28.0801 5.28108C28.1004 5.20045 28.1206 4.91825 28.1409 4.39418C28.1611 3.99104 28.2016 3.68869 28.2826 3.50728C28.3838 3.50728 28.5255 3.50728 28.6875 3.50728C29.3961 3.50728 29.9427 3.34603 30.3476 3.00336C30.7525 2.6607 30.9347 2.2374 30.9347 1.71333C30.9347 1.47145 30.8942 1.24972 30.8133 1.04815C30.6311 0.564391 30.0642 0.32251 29.0924 0.32251C28.6065 0.32251 28.1004 0.38298 27.574 0.483764L25.9746 0.645018C24.6992 0.806272 23.6667 1.7738 23.4845 3.06383C23.4845 3.08399 23.4845 3.08399 23.4845 3.10414C23.2213 5.09967 23.0796 6.89362 23.0998 8.44569C23.1201 11.1467 23.363 12.9205 23.8894 13.7671C24.355 14.3516 24.7194 14.6943 24.9421 14.8152C25.509 15.0773 26.1366 15.1982 26.8249 15.1982C27.6145 15.1982 28.3028 15.037 28.89 14.6943C29.5378 14.3315 30.0642 13.8679 30.4286 13.3035C30.793 12.7592 30.955 12.215 30.8942 11.6909C30.8538 11.2273 30.5703 10.8847 30.0642 10.6831C29.7403 10.542 29.3354 10.542 28.809 10.6831C28.5458 10.542 28.4243 10.3203 28.4243 10.0179C28.5458 9.3729 28.5863 8.96977 28.5458 8.82867C28.809 8.78835 28.9912 8.80851 29.0924 8.82867Z" fill="#1D1D1B"/>
<path d="M48.7102 2.27771C48.7102 1.85441 48.6292 1.49159 48.447 1.18924C47.9611 0.322499 47.0096 -0.0604802 45.6127 0.0201469C44.9648 0.201558 44.3574 0.927202 43.8311 2.19708C43.3857 3.24523 43.163 4.0515 43.163 4.61589C43.163 4.69652 43.163 4.73683 43.1832 4.73683C43.1427 4.83762 43.082 4.87793 42.9808 4.87793C42.8593 4.87793 42.7783 4.81746 42.7378 4.71668C42.7378 4.57558 42.7581 4.15229 42.8188 3.4468C42.8593 2.72116 42.8998 2.25755 42.8998 1.99551C42.8998 1.79394 42.8795 1.53191 42.8593 1.2094C42.5556 0.50391 41.928 0.161244 40.9765 0.161244C40.1869 0.161244 39.5998 0.423282 39.2151 0.947359H39.1949C38.8507 1.12877 38.5673 2.03582 38.2839 3.66852C38.0207 5.30122 37.879 6.97423 37.879 8.72787C37.8587 11.9126 38.3041 13.8477 39.1747 14.5129C39.5391 14.7951 40.025 14.9362 40.6121 14.9362C41.3207 14.9362 41.9078 14.7548 42.3937 14.3718C42.6973 13.9082 42.8391 13.2833 42.8391 12.4972C42.8391 12.0336 42.7783 11.4087 42.6366 10.6226L42.7581 10.5017C42.9605 10.5621 43.082 10.6226 43.1225 10.6629C43.3249 11.3281 43.7298 12.1747 44.3372 13.1624C45.1673 14.5532 45.8758 15.1982 46.4832 15.1377C47.1311 15.0773 47.5967 14.8555 47.8801 14.4927C48.2445 13.9888 48.447 13.4244 48.447 12.7592C48.447 11.9126 48.0218 10.7234 47.1918 9.23179C46.7666 8.48599 46.463 7.96192 46.2808 7.67972C46.8071 6.87345 47.212 6.24859 47.4955 5.84546C48.3255 4.59574 48.7102 3.40649 48.7102 2.27771Z" fill="#1D1D1B"/>
<path d="M58.6911 14.2105C59.5009 13.626 60.0678 12.8398 60.3917 11.832L60.3714 11.8118H60.3512C60.7156 10.6226 60.8978 9.55428 60.8978 8.58676C60.8978 7.45798 60.5537 5.86559 59.8451 3.82976C59.5211 2.88239 58.8935 2.09628 57.9623 1.4311C57.031 0.786086 56.0592 0.44342 55.0672 0.44342C54.8445 0.44342 54.642 0.463577 54.4396 0.503891C52.2328 0.907026 50.7752 2.72114 50.1071 5.94622C49.9654 6.65171 49.8844 7.41767 49.8844 8.24409C49.8844 10.0582 50.35 11.5901 51.2813 12.8398C52.3746 14.3314 53.9132 15.0571 55.877 15.0571C56.9298 15.0772 57.8813 14.795 58.6911 14.2105ZM55.7555 10.4815C54.966 10.6024 54.5611 9.9171 54.5611 8.4255C54.5611 7.61923 54.6825 6.89359 54.9052 6.22841C55.1279 5.56324 55.3709 5.26089 55.6543 5.34152C55.8163 5.36167 55.958 5.70434 56.0997 6.3292C56.2414 6.97422 56.3021 7.65955 56.3021 8.40535C56.3021 9.71554 56.1199 10.4009 55.7555 10.4815Z" fill="#1D1D1B"/>
<path d="M63.0033 14.4524C63.4285 14.8354 64.0156 15.0369 64.7242 15.0369C65.2101 15.0369 65.6555 14.9563 66.0401 14.7749C66.4248 14.5935 66.688 14.3919 66.8094 14.1299C67.0524 13.6058 67.1739 13.122 67.1739 12.6786C67.1739 12.598 67.1334 12.2956 67.0321 11.7312C66.9512 11.2072 66.9309 10.8443 66.9512 10.6024C69.0972 10.2598 70.4941 9.67524 71.1217 8.84881C71.8708 7.84097 72.2554 6.77266 72.2554 5.62373C72.2554 4.55542 71.9315 3.52742 71.2634 2.49943L71.2837 2.47927H71.2634C70.2714 0.987668 68.672 0.262024 66.4855 0.262024C65.5745 0.262024 64.5622 0.403121 63.4487 0.685316C62.9628 0.806257 62.5984 1.18924 62.3352 1.83425C62.1328 2.33817 62.0113 2.94287 61.9708 3.66852C61.9303 4.47479 61.8898 4.9384 61.8898 5.03918V9.01006C61.8696 10.3404 62.0113 11.6103 62.2947 12.8197C62.3555 13.505 62.5782 14.0493 63.0033 14.4524ZM66.5665 3.82977C67.4775 3.9104 67.9229 4.29338 67.9229 4.97871C67.9229 5.24075 67.842 5.5431 67.7002 5.82529L67.68 5.80514C67.5585 6.06717 67.3358 6.34937 67.0119 6.67188C66.8297 6.85329 66.688 6.99439 66.5867 7.09517C66.5463 6.55094 66.526 6.12765 66.4855 5.84545C66.4653 5.66404 66.4653 5.38184 66.4653 4.99887C66.4855 4.73683 66.5058 4.35385 66.5665 3.82977Z" fill="#1D1D1B"/>
<path d="M83.6332 4.1523C83.5522 3.2654 83.4915 2.70101 83.4308 2.41881C83.1271 1.06831 82.378 0.403137 81.1835 0.403137C80.4952 0.403137 79.9688 0.624862 79.6044 1.08847C79.2805 1.4916 79.1185 1.97537 79.1185 2.58007C79.1185 3.08399 79.1995 3.89026 79.3412 4.97873C79.4222 5.60359 79.5437 6.30907 79.6651 7.1355C79.4222 6.08735 79.159 5.18029 78.8553 4.41434C78.167 2.5196 77.4584 1.37066 76.7296 0.987684C76.4664 0.907057 76.183 0.866743 75.9198 0.866743C75.4136 0.866743 74.948 1.00784 74.5431 1.31019C73.8345 1.83427 73.3891 2.49944 73.1867 3.30571C72.9235 4.37402 72.802 6.49048 72.802 9.61478C72.802 11.2273 72.9235 12.4166 73.1664 13.1825C73.5308 14.3315 74.2394 14.9563 75.2719 15.0571C75.5958 15.0974 75.94 15.0168 76.2842 14.8152C76.6284 14.6137 76.8915 14.3718 77.013 14.0896C77.3167 13.4849 77.4584 12.6585 77.4584 11.6305C77.4584 10.7032 77.3369 9.75588 77.1142 8.80851C78.3897 12.4367 79.3412 14.4121 79.9688 14.7548C80.475 14.8757 80.8596 14.9362 81.1835 14.9362C81.4467 14.9362 81.6694 14.8959 81.8719 14.8152C83.1676 14.3315 83.8357 12.1344 83.8357 8.22397C83.8154 6.91378 83.7547 5.56327 83.6332 4.1523Z" fill="#1D1D1B"/>
<path d="M87.7633 14.9764C87.8645 14.9764 88.0467 14.9563 88.3301 14.9361C89.2412 14.6942 89.8283 13.9484 90.051 12.6987C90.3952 10.7637 90.5571 8.58674 90.5571 6.12762C90.5571 5.92605 90.5369 5.44229 90.5166 4.71664C90.4964 3.991 90.4761 3.36614 90.4761 2.86222L90.2939 1.73344C90.1725 1.31015 89.9498 1.02795 89.6056 0.866699C89.4032 0.826385 89.1602 0.786072 88.8768 0.786072C87.6823 0.786072 86.7713 1.24968 86.1234 2.17689L85.6173 3.42661C85.3743 4.71664 85.2326 6.20824 85.2326 7.90141C85.2124 9.4938 85.3541 11.2878 85.6375 13.2631C85.7995 14.3919 86.5081 14.9764 87.7633 14.9764Z" fill="#1D1D1B"/>
<path d="M94.8694 14.6943C95.3755 14.7749 95.8614 14.8152 96.3675 14.8152C97.5013 14.8152 98.3516 14.5733 98.8982 14.0896C99.4246 13.505 99.789 12.8802 99.9712 12.215C100.133 11.6909 100.214 10.9854 100.214 10.1388C100.214 10.0179 100.214 9.57445 100.194 8.82865C100.174 8.08285 100.174 7.53862 100.174 7.21611H100.194C99.951 3.74915 99.6473 1.77378 99.2626 1.26986C98.9994 0.9272 98.5945 0.745789 98.0682 0.745789C97.7442 0.745789 97.1774 0.866729 96.3271 1.08845C95.6994 1.49159 95.3755 2.11645 95.3755 2.92272L95.8209 6.04702C96.0031 7.37737 96.0841 8.54646 96.0234 9.5543C95.8817 10.0179 95.659 10.2396 95.3553 10.2396C95.1123 10.2396 94.9301 9.99775 94.7884 9.51398C94.6265 8.92944 94.5455 8.60693 94.5252 8.56662C94.424 8.32473 94.262 8.20379 94.0596 8.20379C93.8571 8.20379 93.5737 8.32473 93.2498 8.54646C92.7031 8.94959 92.3387 9.25195 92.1565 9.45351C91.8124 9.81634 91.6504 10.2396 91.6504 10.7032C91.6504 11.0862 91.7516 11.5901 91.9338 12.215C92.3792 13.6058 93.351 14.4322 94.8694 14.6943Z" fill="#1D1D1B"/>
<path d="M7.87541 25.0347C7.61223 24.7928 6.74168 24.1478 5.28402 23.0997C4.87911 22.8175 4.69691 22.4546 4.69691 22.0515C4.69691 21.8096 4.75764 21.5476 4.89936 21.3057C5.04107 21.2251 5.18279 21.1848 5.365 21.1848C5.70917 21.1848 5.87113 21.3057 5.91162 21.5274C5.97236 22.112 6.19506 22.4748 6.59996 22.5756C6.86315 22.6361 7.0656 22.6764 7.20732 22.6764C7.63247 22.6764 8.05762 22.3942 8.46253 21.8499L8.44228 21.8298C8.74596 21.3863 8.90792 21.0034 8.88768 20.701C8.86743 20.439 8.76621 20.1568 8.56375 19.8746C8.09811 19.2094 7.65272 18.7458 7.24781 18.5039C6.57972 18.1209 5.85089 17.9194 5.04107 17.9194C3.6239 17.9194 2.40919 18.4233 1.39692 19.4311C0.465641 20.3382 0 21.3662 0 22.5353C0 23.3415 0.202453 24.1277 0.587113 24.9138C0.890792 25.4983 1.21472 25.9821 1.57913 26.3247C1.84232 26.5666 2.24723 26.869 2.83434 27.2318C3.52268 27.6551 3.90734 27.9171 4.00856 28.0381C4.10979 28.159 4.17053 28.2598 4.17053 28.3807C4.15028 28.7234 3.92758 28.9451 3.48219 29.0459H3.4417L3.42145 29.0258C3.29998 29.0459 3.19875 29.0661 3.09753 29.0661C2.89508 29.0661 2.51041 28.925 1.96379 28.6226C1.41717 28.3404 1.09325 28.1792 0.971773 28.1792C0.72883 28.1792 0.506132 28.3001 0.303679 28.542C0.101226 28.7839 0 29.0862 0 29.4087C0 29.3684 0 29.4087 0.0202453 29.5297C0.0404906 29.6506 0.0809811 29.8925 0.121472 30.215C0.303679 31.626 1.59938 32.5129 3.98832 32.8959L4.02881 32.916C4.21102 32.9362 4.33249 32.9563 4.43372 32.9563C5.10181 32.9563 5.79015 32.7951 6.51898 32.4524C8.46253 31.5655 9.4343 30.3158 9.41405 28.7234C9.39381 28.3203 9.37356 28.0179 9.35332 27.776C9.31283 26.8287 8.8067 25.9216 7.87541 25.0347Z" fill="#1D1D1B"/>
<path d="M15.8925 20.6204L15.7306 19.4916C15.6091 19.0683 15.3864 18.7861 15.0422 18.6249C14.8398 18.5846 14.5968 18.5443 14.3134 18.5443C13.1189 18.5443 12.2079 19.0079 11.5601 19.9351L11.0539 21.1848C10.811 22.4748 10.6693 23.9664 10.6693 25.6596C10.649 27.252 10.7907 29.0459 11.0742 31.0213C11.2361 32.1702 11.9447 32.7548 13.1999 32.7548C13.3011 32.7548 13.4834 32.7346 13.7668 32.7145C14.6778 32.4726 15.2649 31.7268 15.4876 30.4771C15.8318 28.542 15.9938 26.3651 15.9938 23.906C15.9938 23.7044 15.9735 23.2206 15.9533 22.495C15.9128 21.7492 15.8925 21.1243 15.8925 20.6204Z" fill="#1D1D1B"/>
<path d="M44.3776 18.1612C44.0334 18.2016 43.7703 18.2822 43.588 18.383C43.3249 18.5039 43.0617 18.7659 42.839 19.1489C42.1101 20.3785 41.6647 22.3337 41.5028 25.0347C41.4825 25.1758 41.4016 25.2161 41.2194 25.1758C41.0979 24.8533 41.0979 24.5509 41.1789 24.2889C41.1991 24.1276 41.1586 23.7044 41.0574 23.0392C40.9359 22.1926 40.774 21.6081 40.5917 21.2654C40.3286 20.7816 39.9237 20.5397 39.3973 20.5599C38.6482 20.701 38.1218 21.1444 37.8181 21.9104C37.4942 22.7973 37.2513 23.4423 37.1096 23.8858L37.0691 24.4502C37.0488 24.7525 36.9881 24.9742 36.8869 25.0952C36.7856 25.0952 36.6844 25.0347 36.6034 24.9339L36.5427 21.7088C36.4212 20.7413 36.3402 20.1568 36.2795 19.9754C35.9961 18.9272 35.3887 18.4031 34.4372 18.4031C33.9918 18.4031 33.5666 18.5644 33.1617 18.8667C32.3924 19.4714 31.9875 21.2654 31.9673 24.2687C31.947 25.7603 32.0685 27.131 32.3317 28.4009C32.5949 29.6506 32.939 30.598 33.3844 31.2027C34.1133 32.4927 35.166 33.0773 36.5427 32.9765C37.393 32.916 37.9801 32.533 38.2838 31.8074C38.466 31.3438 38.6077 30.6181 38.7089 29.6304C38.8304 28.3404 38.9114 27.5946 38.9519 27.4132C39.0329 27.393 39.1543 27.4535 39.2758 27.5543C39.3365 27.8566 39.377 28.4009 39.3973 29.2273C39.4175 29.9126 39.4783 30.477 39.5795 30.9406C39.7212 31.5252 40.0046 31.9888 40.4095 32.3315C40.9359 32.6338 41.5028 32.7749 42.1304 32.7749C42.6568 32.7749 43.1022 32.654 43.4058 32.3919C44.2966 31.3841 44.9445 29.8522 45.3696 27.7559C45.815 25.3975 46.139 23.6237 46.3617 22.4345C46.5641 21.4266 46.6653 20.8018 46.6653 20.5196C46.6653 19.7939 46.4629 19.2497 46.058 18.8466C45.5518 18.3225 44.985 18.1008 44.3776 18.1612Z" fill="#1D1D1B"/>
<path d="M62.315 20.2374C61.3028 18.7458 59.7034 18.0201 57.5169 18.0201C56.6059 18.0201 55.5936 18.1612 54.4801 18.4434C53.9942 18.5644 53.6298 18.9474 53.3666 19.5924C53.1642 20.0963 53.0427 20.701 53.0022 21.4266C52.9617 22.2329 52.9212 22.6965 52.9212 22.7973V26.7682C52.901 28.0985 53.0427 29.3684 53.3261 30.5778C53.3666 31.2631 53.5893 31.8074 54.0145 32.1904C54.4396 32.5733 55.0267 32.7749 55.7353 32.7749C56.2212 32.7749 56.6666 32.6943 57.0513 32.5129C57.4359 32.3314 57.6991 32.1299 57.8206 31.8678C58.0635 31.3438 58.185 30.86 58.185 30.4166C58.185 30.3359 58.1445 30.0336 58.0433 29.4692C57.9623 28.9451 57.942 28.5823 57.9623 28.3404C60.1083 27.9977 61.5052 27.4132 62.1328 26.5868C62.8819 25.5789 63.2666 24.5106 63.2666 23.3617C63.2868 22.3135 62.9629 21.2654 62.315 20.2374ZM58.7316 23.5834C58.5899 23.8253 58.3672 24.1075 58.0433 24.43C57.8611 24.6114 57.7193 24.7525 57.6181 24.8533C57.5776 24.3091 57.5574 23.8858 57.5169 23.6036C57.4967 23.4222 57.4966 23.14 57.4966 22.757C57.4966 22.4949 57.5371 22.0918 57.5979 21.5677C58.5089 21.6484 58.9543 22.0313 58.9543 22.7167C58.9543 23.019 58.8733 23.3012 58.7316 23.5834Z" fill="#1D1D1B"/>
<path d="M72.7615 19.1489C72.0124 18.2217 70.8787 17.7581 69.4008 17.7581C68.0039 17.7581 66.9511 18.2419 66.2223 19.1892C65.2708 20.4188 64.6229 21.8298 64.2585 23.3819C63.9953 24.4905 63.8131 26.0022 63.7119 27.9373C63.6916 28.4412 63.6714 28.7637 63.6714 28.9048C63.6714 30.9608 64.1978 32.2508 65.2505 32.7749L65.291 32.8152C65.7971 32.9362 66.202 32.9966 66.5462 32.9966C67.2346 32.9966 67.7609 32.7346 68.1253 32.2307C68.4088 31.6864 68.5505 31.1624 68.5505 30.6585C68.5302 30.4367 68.51 30.2755 68.4695 30.1545C69.0971 30.0739 69.664 30.0537 70.1701 30.0739C70.1701 30.5778 70.2511 31.0011 70.4131 31.3236C70.4535 31.4446 70.6155 31.6663 70.8989 32.0291C71.2836 32.3113 71.7897 32.4524 72.3971 32.4524C72.7413 32.4524 73.0449 32.4121 73.3689 32.3315C73.9965 32.1904 74.3609 31.8074 74.4621 31.2228V31.2027C74.6646 30.1747 74.7658 29.0862 74.7658 27.9171C74.7658 25.9418 74.4216 23.6439 73.7333 21.0437C73.5308 20.318 73.2069 19.6932 72.7615 19.1489ZM69.7247 26.3449C69.6842 26.3449 69.5628 26.3651 69.3603 26.4054C69.1579 26.4457 69.0364 26.4658 68.9756 26.4658C68.8339 26.4658 68.7125 26.4054 68.6517 26.2643C68.6112 26.103 68.6517 25.458 68.7732 24.3091C68.8542 23.6641 68.9756 22.7973 69.1174 21.7492C69.2996 21.6081 69.421 21.5677 69.502 21.6484C69.7652 23.785 69.8259 25.3572 69.7247 26.3449Z" fill="#1D1D1B"/>
<path d="M82.621 27.9171C82.54 27.8768 82.4185 27.8566 82.2566 27.8566C81.5682 27.8566 80.9811 27.9776 80.5155 28.1993C80.4345 28.1187 80.4547 27.514 80.556 26.365C80.6977 24.7122 80.7787 23.4826 80.7787 22.7166C80.7787 21.4468 80.6774 20.4188 80.4547 19.5923C80.1916 19.1086 79.9891 18.8264 79.8879 18.7256C79.6449 18.5039 79.2603 18.3829 78.7339 18.3829C78.5719 18.3829 78.4302 18.3829 78.2885 18.4031C77.6812 18.4434 77.2358 18.6047 76.9321 18.8264C76.6486 19.0683 76.3855 19.4916 76.1628 20.1164C75.8996 21.608 75.7781 23.6035 75.8388 26.103C75.8388 26.2038 75.8388 26.365 75.8186 26.5867C75.7983 26.8689 75.7983 27.0907 75.7983 27.2116V28.3001C75.7983 31.122 77.1143 32.5532 79.7462 32.5532C80.6572 32.5532 81.5682 32.3717 82.459 32.0089C83.1069 31.6663 83.4915 30.9608 83.6332 29.8925H83.6535C83.613 29.3885 83.532 28.9854 83.4106 28.7032C83.2486 28.3202 82.9854 28.038 82.621 27.9171Z" fill="#1D1D1B"/>
<path d="M90.7393 26.5868C91.3062 26.6472 91.8123 26.4658 92.2982 26.0425C92.8246 25.5991 93.108 25.0549 93.108 24.3897C93.1283 24.1881 93.108 24.0067 93.0473 23.8051C92.6221 23.2206 92.0958 22.9384 91.4682 22.9384C90.9215 22.9384 90.4762 23.0795 90.1117 23.3617C89.889 23.3214 89.7676 23.2004 89.7271 23.0392C89.7473 22.9586 89.7676 22.6764 89.7878 22.1523C89.8081 21.7492 89.8486 21.4468 89.9295 21.2654C90.0308 21.2654 90.1725 21.2654 90.3344 21.2654C91.043 21.2654 91.5896 21.1041 91.9945 20.7615C92.3994 20.4188 92.5817 19.9955 92.5817 19.4714C92.5817 19.2296 92.5412 19.0078 92.4602 18.8063C92.278 18.3225 91.7111 18.0806 90.7393 18.0806C90.2535 18.0806 89.7473 18.1411 89.2209 18.2419L86.1032 18.5644C85.597 18.9071 85.2529 19.673 85.0909 20.8219C84.8277 22.8175 84.686 24.6114 84.7063 26.1635C84.7265 28.8645 84.9694 30.6383 85.4958 31.4849C85.9615 32.0694 86.3259 32.4121 86.5486 32.533C87.1154 32.7951 87.743 32.916 88.4314 32.916C89.2209 32.916 89.9093 32.7547 90.4964 32.4121C91.1442 32.0493 91.6706 31.5857 92.035 31.0213C92.3995 30.477 92.5614 29.9328 92.5007 29.4087C92.4602 28.9451 92.1767 28.6025 91.6706 28.4009C91.3467 28.2598 90.9418 28.2598 90.4154 28.4009C90.1522 28.2598 90.0308 28.0381 90.0308 27.7357C90.1522 27.0907 90.1927 26.6876 90.1522 26.5465C90.4559 26.5465 90.6381 26.5666 90.7393 26.5868Z" fill="#1D1D1B"/>
<path d="M103.98 28.3606C103.98 28.2396 103.98 28.159 103.98 28.0986V28.0784C103.98 27.2318 103.636 26.7077 102.927 26.5062C102.725 26.4255 102.502 26.3852 102.32 26.3852C102.056 26.3852 101.571 26.6876 100.882 27.3124C100.174 27.9373 99.6877 28.2396 99.4043 28.2598C99.1209 28.1389 98.9791 27.9171 98.9589 27.5745C98.9386 27.2318 98.9184 26.869 98.9184 26.5263C98.9184 26.4659 98.9791 25.1154 99.1006 22.495L99.2828 22.1523C99.4448 22.1322 99.546 22.2329 99.5662 22.4345C99.6067 22.6965 99.627 22.8376 99.6472 22.878C100.315 23.7447 101.085 24.1277 101.955 24.047C102.502 23.9866 102.947 23.6641 103.291 23.0997C103.555 22.6764 103.676 22.2128 103.656 21.7089C103.636 21.1848 103.514 20.701 103.291 20.2576C102.886 19.5319 102.34 18.9675 101.631 18.5442C100.923 18.121 100.153 17.8992 99.3233 17.8992C98.6147 17.8992 97.9466 18.0403 97.3393 18.3225C96.7319 18.6047 96.246 18.9675 95.9423 19.411C95.2743 20.318 94.8491 21.3057 94.6669 22.3539C94.4037 23.7447 94.2822 24.9743 94.2822 26.0627C94.262 28.542 95.0516 30.4771 96.6104 31.8477C97.3595 32.5129 98.311 32.8354 99.5055 32.8354C100.396 32.8354 101.206 32.654 101.975 32.2912C103.352 31.6461 104.04 30.4166 104.04 28.6226C104 28.5622 103.98 28.4815 103.98 28.3606Z" fill="#1D1D1B"/>
<path d="M24.5575 32.9967C24.5171 32.9967 24.4563 32.9967 24.4158 32.9967C23.8085 32.916 23.606 32.1501 24.0514 31.7268C24.2539 31.5252 24.4563 31.3035 24.598 31.0818C24.7397 30.8601 24.8612 30.6585 24.9422 30.4368C24.9422 30.4368 24.9422 30.4368 24.9624 30.4368C25.0839 30.1143 25.1244 29.7917 25.0839 29.4692C25.0434 29.0056 24.76 28.663 24.2539 28.4614C23.9299 28.3203 23.525 28.3203 22.9987 28.4614C22.7355 28.3203 22.614 28.0986 22.614 27.7962C22.7355 27.1512 22.776 26.7481 22.7355 26.607C22.9987 26.5868 23.2011 26.5868 23.3023 26.6271C23.8692 26.6876 24.3753 26.5062 24.8612 26.0829C25.3876 25.6394 25.671 25.0952 25.671 24.43C25.6913 24.2285 25.671 24.0471 25.6103 23.8455C25.1851 23.2609 24.6588 22.9788 24.0312 22.9788C23.4845 22.9788 23.0391 23.1199 22.6747 23.402C22.452 23.3617 22.3306 23.2408 22.2901 23.0795C22.3103 22.9989 22.3306 22.7167 22.3508 22.1926C22.3711 21.7895 22.4115 21.4872 22.4925 21.3057C22.5937 21.3057 22.7355 21.3057 22.8974 21.3057C23.606 21.3057 24.1526 21.1445 24.5575 20.8018C24.9624 20.4592 25.1447 20.0359 25.1447 19.5118C25.1447 19.2699 25.1042 19.0482 25.0232 18.8466C24.841 18.3629 24.2741 18.121 23.3023 18.121C22.8164 18.121 22.3103 18.1814 21.7839 18.2822L18.6662 18.6047C18.16 18.9474 17.8159 19.7134 17.6539 20.8623C17.3907 22.8578 17.249 24.6518 17.2692 26.2038C17.2895 28.9048 17.5324 30.6786 18.0588 31.5252C18.5244 32.1098 18.8889 32.4524 19.1116 32.5734C19.6582 32.8354 20.2858 32.9564 20.9741 32.9564C20.9539 35.5767 22.3913 36.4435 24.5778 35.8589C26.663 35.2542 26.6833 32.9362 24.5575 32.9967Z" fill="#1D1D1B"/>
</g>
<defs>
<clipPath id="clip0">
<rect width="104" height="36" fill="white"/>
</clipPath>
</defs>
</svg>
