<svg width="183" height="35" viewBox="0 0 183 35" fill="none" xmlns="http://www.w3.org/2000/svg">
<path d="M3.24118 2.54118H3.28235C4.13333 1.38823 5.43726 0.811763 7.19412 0.811763C9.30784 0.811763 10.6941 1.59412 11.3529 3.15882C11.4078 3.87255 11.4353 4.44902 11.4353 4.88823C11.4353 5.43725 11.3804 6.50784 11.2706 8.1C11.1608 9.69216 11.1059 10.6392 11.1059 10.9412C11.2157 11.1882 11.3941 11.3118 11.6412 11.3118C11.8608 11.3118 12.0118 11.202 12.0941 10.9824C12.0667 10.9549 12.0529 10.8588 12.0529 10.6941C12.0529 9.45882 12.5471 7.67451 13.5353 5.34118C14.7157 2.54118 16.0333 0.935292 17.4882 0.523527C20.5902 0.33137 22.6765 1.19608 23.7471 3.11765C24.1314 3.80392 24.3235 4.61372 24.3235 5.54706C24.3235 8.07255 23.4314 10.7078 21.6471 13.4529C21.0431 14.3588 20.151 15.7176 18.9706 17.5294C19.3549 18.1608 20.0275 19.3137 20.9882 20.9882C22.8275 24.3098 23.7471 26.9176 23.7471 28.8118C23.7471 30.2667 23.3353 31.5431 22.5118 32.6412C21.9078 33.4647 20.8784 33.9451 19.4235 34.0824C18.1059 34.2196 16.5275 32.751 14.6882 29.6765C13.3431 27.4529 12.451 25.6 12.0118 24.1176C11.902 24.0078 11.6275 23.8843 11.1882 23.7471L10.9 24.0353C11.202 25.7922 11.3529 27.1784 11.3529 28.1941C11.3529 29.951 11.0235 31.3373 10.3647 32.3529C9.29412 33.1765 7.97647 33.5882 6.41176 33.5882C5.12157 33.5882 4.06471 33.2725 3.24118 32.6412C1.29216 31.1588 0.331373 26.8765 0.358824 19.7941C0.358824 15.9235 0.647059 12.1902 1.22353 8.59412C1.82745 4.97059 2.5 2.95294 3.24118 2.54118ZM50.1188 26.7529L50.16 26.7941C49.4463 29.0176 48.1835 30.7745 46.3718 32.0647C44.5874 33.3549 42.5149 34 40.1541 34C35.7894 34 32.3992 32.3529 29.9835 29.0588C27.9247 26.2588 26.8953 22.8549 26.8953 18.8471C26.8953 17.0078 27.06 15.3059 27.3894 13.7412C28.8992 6.57647 32.0973 2.54117 36.9835 1.63529C37.4227 1.55294 37.8894 1.51176 38.3835 1.51176C40.5796 1.51176 42.7071 2.23921 44.7659 3.69412C46.8522 5.14902 48.2522 6.91961 48.9659 9.00588C50.5031 13.5353 51.2718 17.0627 51.2718 19.5882C51.2718 21.7294 50.8737 24.1176 50.0776 26.7529H50.1188ZM39.9071 23.7882V23.7471C40.7031 23.6098 41.1012 22.0863 41.1012 19.1765C41.1012 17.502 40.9502 15.9647 40.6482 14.5647C40.3463 13.1373 40.0169 12.3961 39.66 12.3412C39.0561 12.1765 38.5071 12.8353 38.0129 14.3176C37.5188 15.8 37.2718 17.4333 37.2718 19.2176C37.2718 22.5392 38.1502 24.0627 39.9071 23.7882ZM78.0138 9.70588V9.6647C78.2883 12.849 78.4256 15.8549 78.4256 18.6824C78.4256 27.3843 76.9844 32.2706 74.102 33.3412C73.6628 33.5059 73.155 33.5882 72.5785 33.5882C71.8922 33.5882 71.0001 33.451 69.902 33.1765C68.5295 32.4078 66.4295 28.002 63.602 19.9588C64.0961 22.0725 64.3432 24.1588 64.3432 26.2176C64.3432 28.4961 64.0138 30.3078 63.355 31.6529C63.053 32.2843 62.504 32.8333 61.7079 33.3C60.9393 33.7392 60.1981 33.9176 59.4844 33.8353C57.2059 33.6157 55.655 32.2294 54.8314 29.6765C54.2824 27.9745 54.0079 25.3392 54.0079 21.7706C54.0079 14.8255 54.2961 10.1588 54.8726 7.77059C55.3118 5.98627 56.3138 4.51765 57.8785 3.36471C58.7844 2.70588 59.8001 2.37647 60.9256 2.37647C61.5295 2.37647 62.1334 2.47255 62.7373 2.6647C64.3295 3.51568 65.8942 6.0549 67.4314 10.2824C68.0628 11.9843 68.653 14.002 69.202 16.3353C68.9275 14.5235 68.6942 12.9314 68.502 11.5588C68.1726 9.14314 68.0079 7.37255 68.0079 6.24706C68.0079 4.90196 68.3648 3.79019 69.0785 2.91176C69.902 1.89608 71.0687 1.38823 72.5785 1.38823C75.2412 1.38823 76.902 2.87059 77.5608 5.83529C77.6981 6.46666 77.8491 7.75686 78.0138 9.70588ZM103.93 6.65882H103.971C104.053 7.07059 104.094 7.60588 104.094 8.26471C104.067 9.63725 103.737 10.6804 103.106 11.3941C102.859 11.6686 101.747 11.998 99.7707 12.3824C97.8217 12.7392 96.8197 12.9725 96.7648 13.0824C96.7099 13.3843 97.0256 16.2529 97.7119 21.6882C97.8492 22.7863 97.9178 23.8843 97.9178 24.9824C97.9178 27.4804 97.5884 29.5392 96.9296 31.1588C96.106 33.1902 94.8982 34.1784 93.306 34.1235C90.7256 34.0412 88.9276 33.2314 87.9119 31.6941C87.1433 30.5412 86.7452 28.7157 86.7178 26.2176C86.7178 26.4373 86.7727 24.9961 86.8825 21.8941L87.0884 16.6235C87.1982 14.9765 87.3766 13.549 87.6237 12.3412C87.459 12.3961 87.2119 12.4235 86.8825 12.4235C85.9492 12.4235 85.0158 12.2725 84.0825 11.9706C82.8197 11.5588 81.955 10.9549 81.4884 10.1588C80.8295 9.03333 80.5001 7.97647 80.5001 6.98823C80.5001 5.34118 81.406 4.0647 83.2178 3.15882C85.5511 1.97843 88.3648 1.38823 91.659 1.38823C93.3884 1.38823 95.2001 1.55294 97.0943 1.88235C98.0001 2.21176 99.3727 2.71961 101.212 3.40588C102.749 4.20196 103.655 5.28627 103.93 6.65882ZM129.692 30.3765V30.4176C129.445 31.7353 128.635 32.5588 127.262 32.8882C126.576 33.0529 125.862 33.1353 125.121 33.1353C123.776 33.1353 122.678 32.8196 121.827 32.1882C121.223 31.3922 120.866 30.8706 120.756 30.6235C120.4 29.9098 120.221 28.9902 120.221 27.8647C119.123 27.8098 117.874 27.8647 116.474 28.0294C116.529 28.2765 116.584 28.6471 116.639 29.1412C116.639 30.2667 116.323 31.4333 115.692 32.6412C114.896 33.7667 113.729 34.3294 112.192 34.3294C111.451 34.3294 110.531 34.1922 109.433 33.9176L109.351 33.8353C107.017 32.6824 105.851 29.8137 105.851 25.2294C105.851 24.9275 105.878 24.2137 105.933 23.0882C106.152 18.7784 106.551 15.402 107.127 12.9588C107.951 9.5 109.405 6.39804 111.492 3.65294C113.111 1.53921 115.458 0.482351 118.533 0.482351C121.827 0.482351 124.311 1.51176 125.986 3.57059C126.974 4.77843 127.674 6.19216 128.086 7.81176C129.596 13.6039 130.351 18.6961 130.351 23.0882C130.351 25.6686 130.131 28.098 129.692 30.3765ZM119.274 19.5882C119.466 17.3647 119.329 13.8922 118.862 9.17059C118.67 8.97843 118.382 9.04706 117.998 9.37647C117.641 11.7098 117.38 13.6039 117.215 15.0588C116.941 17.6118 116.845 19.0667 116.927 19.4235C117.064 19.7255 117.298 19.8765 117.627 19.8765C117.737 19.8765 118.011 19.8353 118.451 19.7529C118.917 19.6431 119.192 19.5882 119.274 19.5882ZM135.886 2.54118H135.927C136.778 1.38823 138.082 0.811763 139.839 0.811763C141.952 0.811763 143.339 1.59412 143.997 3.15882C144.052 3.87255 144.08 4.44902 144.08 4.88823C144.08 5.43725 144.025 6.50784 143.915 8.1C143.805 9.69216 143.75 10.6392 143.75 10.9412C143.86 11.1882 144.039 11.3118 144.286 11.3118C144.505 11.3118 144.656 11.202 144.739 10.9824C144.711 10.9549 144.697 10.8588 144.697 10.6941C144.697 9.45882 145.192 7.67451 146.18 5.34118C147.36 2.54118 148.678 0.935292 150.133 0.523527C153.235 0.33137 155.321 1.19608 156.392 3.11765C156.776 3.80392 156.968 4.61372 156.968 5.54706C156.968 8.07255 156.076 10.7078 154.292 13.4529C153.688 14.3588 152.796 15.7176 151.615 17.5294C151.999 18.1608 152.672 19.3137 153.633 20.9882C155.472 24.3098 156.392 26.9176 156.392 28.8118C156.392 30.2667 155.98 31.5431 155.156 32.6412C154.552 33.4647 153.523 33.9451 152.068 34.0824C150.75 34.2196 149.172 32.751 147.333 29.6765C145.988 27.4529 145.096 25.6 144.656 24.1176C144.546 24.0078 144.272 23.8843 143.833 23.7471L143.545 24.0353C143.846 25.7922 143.997 27.1784 143.997 28.1941C143.997 29.951 143.668 31.3373 143.009 32.3529C141.939 33.1765 140.621 33.5882 139.056 33.5882C137.766 33.5882 136.709 33.2725 135.886 32.6412C133.937 31.1588 132.976 26.8765 133.003 19.7941C133.003 15.9235 133.292 12.1902 133.868 8.59412C134.472 4.97059 135.145 2.95294 135.886 2.54118ZM182.31 6.65882H182.352C182.434 7.07059 182.475 7.60588 182.475 8.26471C182.448 9.63725 182.118 10.6804 181.487 11.3941C181.24 11.6686 180.128 11.998 178.152 12.3824C176.203 12.7392 175.201 12.9725 175.146 13.0824C175.091 13.3843 175.406 16.2529 176.093 21.6882C176.23 22.7863 176.299 23.8843 176.299 24.9824C176.299 27.4804 175.969 29.5392 175.31 31.1588C174.487 33.1902 173.279 34.1784 171.687 34.1235C169.106 34.0412 167.308 33.2314 166.293 31.6941C165.524 30.5412 165.126 28.7157 165.099 26.2176C165.099 26.4373 165.154 24.9961 165.263 21.8941L165.469 16.6235C165.579 14.9765 165.757 13.549 166.005 12.3412C165.84 12.3961 165.593 12.4235 165.263 12.4235C164.33 12.4235 163.397 12.2725 162.463 11.9706C161.201 11.5588 160.336 10.9549 159.869 10.1588C159.21 9.03333 158.881 7.97647 158.881 6.98823C158.881 5.34118 159.787 4.0647 161.599 3.15882C163.932 1.97843 166.746 1.38823 170.04 1.38823C171.769 1.38823 173.581 1.55294 175.475 1.88235C176.381 2.21176 177.754 2.71961 179.593 3.40588C181.13 4.20196 182.036 5.28627 182.31 6.65882Z" fill="black"/>
</svg>
