<svg width="107" height="27" viewBox="0 0 107 27" fill="none" xmlns="http://www.w3.org/2000/svg">
<path d="M18.451 7.49019V7.45882C18.6601 9.88497 18.7647 12.1752 18.7647 14.3294C18.7647 20.9595 17.6667 24.6824 15.4706 25.498C15.1359 25.6235 14.749 25.6863 14.3098 25.6863C13.7869 25.6863 13.1072 25.5817 12.2706 25.3725C11.2248 24.7869 9.62484 21.4301 7.47059 15.302C7.84706 16.9124 8.03529 18.502 8.03529 20.0706C8.03529 21.8065 7.78431 23.1869 7.28235 24.2118C7.05229 24.6928 6.63399 25.1111 6.02745 25.4667C5.44183 25.8013 4.87712 25.9373 4.33333 25.8745C2.59739 25.7072 1.41569 24.651 0.788235 22.7059C0.369935 21.4092 0.160784 19.4013 0.160784 16.6824C0.160784 11.3908 0.380392 7.83529 0.819608 6.01569C1.15425 4.65621 1.91765 3.53725 3.1098 2.65882C3.8 2.15686 4.57386 1.90588 5.43137 1.90588C5.8915 1.90588 6.35163 1.97908 6.81177 2.12549C8.02484 2.77385 9.21699 4.7085 10.3882 7.92941C10.8693 9.22614 11.319 10.7634 11.7373 12.5412C11.5281 11.1608 11.3503 9.94771 11.2039 8.90196C10.9529 7.06144 10.8275 5.71242 10.8275 4.8549C10.8275 3.83006 11.0993 2.98301 11.6431 2.31372C12.2706 1.53987 13.1595 1.15294 14.3098 1.15294C16.3386 1.15294 17.6039 2.28235 18.1059 4.54118C18.2105 5.02222 18.3255 6.00523 18.451 7.49019ZM39.0434 23.2392V23.2706C38.8551 24.2745 38.2382 24.902 37.1924 25.1529C36.6695 25.2784 36.1257 25.3412 35.561 25.3412C34.5362 25.3412 33.6996 25.1007 33.0512 24.6196C32.5911 24.0131 32.3192 23.6157 32.2355 23.4275C31.9636 22.8837 31.8277 22.183 31.8277 21.3255C30.9911 21.2837 30.0395 21.3255 28.9728 21.451C29.0146 21.6392 29.0565 21.9216 29.0983 22.298C29.0983 23.1556 28.8578 24.0444 28.3767 24.9647C27.7702 25.8222 26.8813 26.251 25.71 26.251C25.1453 26.251 24.4447 26.1464 23.6081 25.9373L23.5453 25.8745C21.7676 24.9961 20.8787 22.8105 20.8787 19.3176C20.8787 19.0876 20.8996 18.5438 20.9414 17.6863C21.1087 14.4026 21.412 11.8301 21.8512 9.96863C22.4787 7.33333 23.5872 4.96993 25.1767 2.87843C26.4107 1.26797 28.1989 0.462744 30.5414 0.462744C33.0512 0.462744 34.944 1.24706 36.2199 2.81569C36.9728 3.73595 37.5061 4.81307 37.8199 6.04706C38.9702 10.4601 39.5453 14.3399 39.5453 17.6863C39.5453 19.6523 39.378 21.5033 39.0434 23.2392ZM31.1061 15.0196C31.2525 13.3255 31.148 10.6797 30.7924 7.08235C30.646 6.93595 30.4264 6.98823 30.1336 7.23921C29.8617 9.01699 29.663 10.4601 29.5375 11.5686C29.3284 13.5137 29.2551 14.6222 29.3179 14.8941C29.4225 15.1242 29.6002 15.2392 29.8512 15.2392C29.9349 15.2392 30.144 15.2078 30.4787 15.1451C30.8342 15.0614 31.0434 15.0196 31.1061 15.0196ZM57.1587 4.66667L57.1273 4.69804C58.2358 6.41307 58.7901 8.16993 58.7901 9.96863C58.7901 11.9137 58.1522 13.7333 56.8763 15.4275C55.8097 16.8497 53.4672 17.8431 49.8489 18.4078C49.8071 18.8052 49.8489 19.4431 49.9744 20.3216C50.1417 21.2627 50.2254 21.7961 50.2254 21.9216C50.2254 22.6745 50.0162 23.4902 49.5979 24.3686C49.3888 24.8078 48.9496 25.1739 48.2803 25.4667C47.6319 25.7595 46.8999 25.9059 46.0842 25.9059C44.8711 25.9059 43.8986 25.5817 43.1665 24.9333C42.4554 24.2641 42.0685 23.3438 42.0058 22.1725C41.5247 20.1229 41.2946 17.9686 41.3156 15.7098V8.99608C41.3156 8.80784 41.3574 8.03399 41.4411 6.67451C41.5247 5.44052 41.7339 4.40523 42.0685 3.56863C42.5077 2.48104 43.1352 1.83268 43.9509 1.62353C45.8332 1.14248 47.5378 0.901958 49.0646 0.901958C52.7665 0.901958 55.4541 2.15686 57.1273 4.66667H57.1587ZM51.1038 10.3451C51.3548 9.84314 51.4803 9.36209 51.4803 8.90196C51.4803 7.73072 50.7169 7.08235 49.1901 6.95686C49.0855 7.83529 49.0332 8.50457 49.0332 8.9647C49.0332 9.61307 49.0437 10.0941 49.0646 10.4078C49.1064 10.8889 49.1587 11.5895 49.2214 12.5098C49.4097 12.3425 49.6502 12.102 49.943 11.7882C50.4868 11.2444 50.8633 10.7529 51.0724 10.3137L51.1038 10.3451ZM68.508 5.32549C68.508 6.18301 68.5289 7.22876 68.5707 8.46274C68.6125 9.69673 68.6335 10.4915 68.6335 10.8471C68.6544 14.9882 68.372 18.6902 67.7864 21.9529C67.4099 24.0654 66.4478 25.3307 64.9001 25.749C64.44 25.7908 64.1263 25.8118 63.9589 25.8118C61.8465 25.8118 60.6544 24.8392 60.3825 22.8941C59.9014 19.5477 59.6714 16.5255 59.6923 13.8274C59.7132 10.983 59.9328 8.46274 60.3511 6.26667L61.1982 4.16471C62.2857 2.59608 63.8335 1.81176 65.8413 1.81176C66.3014 1.81176 66.7093 1.85359 67.0648 1.93725C67.6504 2.20915 68.0374 2.70065 68.2256 3.41176L68.508 5.32549ZM76.4949 19.5686H76.5262C77.2792 19.3804 77.6661 19.0039 77.687 18.4392C77.687 18.2301 77.5929 18.0314 77.4047 17.8431C77.2373 17.6549 76.5785 17.2052 75.4282 16.4941C74.4661 15.8876 73.7654 15.3752 73.3262 14.9569C72.7197 14.3712 72.1654 13.5765 71.6635 12.5725C71.0151 11.2549 70.6909 9.91634 70.6909 8.55686C70.6909 6.59085 71.4648 4.83399 73.0125 3.28627C74.7275 1.57124 76.7772 0.713724 79.1615 0.713724C80.5419 0.713724 81.7864 1.03791 82.8949 1.68627C83.585 2.10457 84.3275 2.87843 85.1223 4.00784C85.4569 4.5098 85.6347 4.98039 85.6556 5.41961C85.6766 5.94248 85.4256 6.58039 84.9027 7.33333L84.9341 7.3647C84.2648 8.30588 83.5641 8.77647 82.8321 8.77647C82.5811 8.77647 82.236 8.72418 81.7968 8.61961C81.1275 8.45229 80.7406 7.86666 80.636 6.86274C80.5942 6.46536 80.2909 6.26667 79.7262 6.26667C79.4334 6.26667 79.172 6.33987 78.9419 6.48627C78.7118 6.90457 78.5968 7.32287 78.5968 7.74117C78.5968 8.45229 78.9315 9.04837 79.6007 9.52941C82.0687 11.2863 83.5223 12.3739 83.9615 12.7922C85.5301 14.2771 86.3668 15.8353 86.4713 17.4667C86.4922 17.8641 86.5236 18.3974 86.5654 19.0667C86.6073 21.7647 84.9864 23.8667 81.7027 25.3725C80.4687 25.9373 79.2975 26.2196 78.189 26.2196C78.0217 26.2196 77.7916 26.1987 77.4988 26.1569L77.436 26.1255C73.4203 25.4771 71.2556 23.9608 70.9419 21.5765C70.8583 21.0327 70.7955 20.6562 70.7537 20.4471C70.7328 20.217 70.7223 20.1438 70.7223 20.2275C70.7223 19.6627 70.8896 19.1712 71.2243 18.7529C71.5589 18.3346 71.9354 18.1255 72.3537 18.1255C72.5419 18.1255 73.0962 18.3765 74.0164 18.8784C74.9367 19.3595 75.5746 19.6 75.9301 19.6C76.0766 19.6 76.2543 19.5791 76.4635 19.5373L76.4949 19.5686ZM106.01 3.9451L106.104 4.88627C106.104 8.75555 103.375 13.0222 97.9159 17.6863C97.7486 18.0418 97.8636 18.2614 98.261 18.3451C99.0349 17.9477 100.279 17.749 101.994 17.749C103.04 17.749 103.814 17.8327 104.316 18C105.299 18.3346 105.801 19.2026 105.822 20.6039C105.822 20.9386 105.759 21.315 105.634 21.7333C105.111 23.4484 104.41 24.5359 103.532 24.9961C101.105 25.5817 98.7839 25.8745 96.5669 25.8745C94.0989 25.8745 92.0388 25.498 90.3865 24.7451C89.3617 24.285 88.661 23.3124 88.2846 21.8275C88.3682 19.7778 88.7761 18 89.5081 16.4941C90.2401 14.9673 91.5159 13.2941 93.3355 11.4745C94.946 10.4915 95.8767 9.56078 96.1277 8.68235C95.9604 8.57778 95.7408 8.52549 95.4689 8.52549C95.1761 8.52549 94.8519 8.55686 94.4963 8.61961C94.1408 8.68235 93.8584 8.73464 93.6493 8.77647C93.4401 8.8183 93.095 8.83921 92.614 8.83921C91.2545 8.83921 90.2506 8.27451 89.6022 7.1451C89.3721 6.74771 89.2571 6.21438 89.2571 5.5451C89.2571 3.7464 89.7591 2.52287 90.763 1.87451C92.1016 1.01699 94.831 0.588234 98.9512 0.588234C101.001 0.588234 102.141 0.671894 102.371 0.839214C103.145 0.964704 103.887 1.32026 104.598 1.90588C105.309 2.4915 105.78 3.15033 106.01 3.88235V3.9451Z" fill="black"/>
</svg>
